<?xml version="1.0" encoding="utf-8" standalone="no"?>
<!DOCTYPE svg PUBLIC "-//W3C//DTD SVG 1.1//EN"
  "http://www.w3.org/Graphics/SVG/1.1/DTD/svg11.dtd">
<!-- Created with matplotlib (https://matplotlib.org/) -->
<svg height="432pt" version="1.1" viewBox="0 0 432 432" width="432pt" xmlns="http://www.w3.org/2000/svg" xmlns:xlink="http://www.w3.org/1999/xlink">
 <defs>
  <style type="text/css">
*{stroke-linecap:butt;stroke-linejoin:round;}
  </style>
 </defs>
 <g id="figure_1">
  <g id="patch_1">
   <path d="M 0 432 
L 432 432 
L 432 0 
L 0 0 
z
" style="fill:none;"/>
  </g>
  <g id="axes_1">
   <g id="line2d_1">
    <path clip-path="url(#pb232beeb61)" d="M 216 184.406847 
L 218.524757 184.507891 
L 221.033364 184.810377 
L 223.509775 185.312371 
L 225.93815 186.01066 
L 228.302953 186.900779 
L 230.58906 187.977034 
L 232.781847 189.23254 
L 234.867287 190.659266 
L 236.832041 192.248087 
L 238.663541 193.988838 
L 240.350071 195.870386 
L 241.880845 197.880695 
L 243.246069 200.006906 
L 244.437011 202.235418 
L 245.446054 204.551976 
L 246.266742 206.941762 
L 246.893826 209.389491 
L 247.323295 211.879504 
L 247.552402 214.395874 
L 247.579682 216.922505 
L 247.404959 219.443235 
L 247.029352 221.94194 
L 246.455262 224.402637 
L 245.686363 226.809586 
L 244.727573 229.147391 
L 243.585024 231.401097 
L 242.266025 233.556288 
L 240.779013 235.599179 
L 239.1335 237.516703 
L 237.340012 239.296593 
L 235.41002 240.927464 
L 233.35587 242.398884 
L 231.190702 243.701442 
L 228.928366 244.826805 
L 226.583332 245.767775 
L 224.170601 246.518332 
L 221.705606 247.073677 
L 219.204114 247.430256 
L 216.682127 247.585788 
L 214.155777 247.53928 
L 211.641223 247.291027 
L 209.154551 246.842619 
L 206.711666 246.196923 
L 204.328195 245.35807 
L 202.019384 244.331426 
L 199.800001 243.123557 
L 197.684242 241.74219 
L 195.685642 240.196161 
L 193.816985 238.495359 
L 192.090223 236.650663 
L 190.516402 234.673874 
L 189.105589 232.577635 
L 187.866809 230.375356 
L 186.807985 228.081124 
L 185.93589 225.709614 
L 185.256103 223.275996 
L 184.772972 220.795836 
L 184.489587 218.284999 
L 184.407762 215.759546 
L 184.528019 213.235631 
L 184.849589 210.729399 
L 185.370416 208.25688 
L 186.087167 205.833891 
L 186.995259 203.47593 
L 188.088882 201.198081 
L 189.361041 199.014913 
L 190.803598 196.940392 
L 192.407326 194.987788 
L 194.161967 193.16959 
L 196.056296 191.497428 
L 198.078198 189.982 
L 200.214737 188.632998 
L 202.452249 187.459051 
L 204.77642 186.467669 
L 207.172383 185.665193 
L 209.624814 185.056756 
L 212.118023 184.646251 
L 214.636064 184.436302 
L 215.899366 184.407007 
L 215.899366 184.407007 
" style="fill:none;stroke:#ff0000;stroke-linecap:round;stroke-width:1.5;"/>
   </g>
   <g id="line2d_2">
    <path clip-path="url(#pb232beeb61)" d="M 216 152.813694 
L 270.720946 247.593153 
L 161.279054 247.593153 
L 216 152.813694 
" style="fill:none;stroke:#000000;stroke-linecap:round;stroke-width:1.5;"/>
   </g>
   <g id="line2d_3">
    <path clip-path="url(#pb232beeb61)" d="M 216 152.813694 
L 219.788904 152.927395 
L 223.564172 153.26809 
L 227.312217 153.834551 
L 231.019551 154.624741 
L 234.67283 155.635816 
L 238.258908 156.864137 
L 241.764877 158.305283 
L 245.17812 159.954067 
L 248.486354 161.804557 
L 251.677672 163.850091 
L 254.740589 166.083309 
L 257.664082 168.496173 
L 260.437629 171.08 
L 263.051248 173.82549 
L 265.495534 176.722762 
L 267.761689 179.761391 
L 269.841558 182.930439 
L 271.727656 186.218502 
L 273.413194 189.613746 
L 274.892107 193.103952 
L 276.159072 196.676559 
L 277.209529 200.31871 
L 278.039698 204.017296 
L 278.646591 207.759008 
L 279.028024 211.530378 
L 279.182624 215.317833 
L 279.109835 219.107744 
L 278.809918 222.88647 
L 278.283954 226.640413 
L 277.533835 230.356061 
L 276.56226 234.020043 
L 275.372727 237.619173 
L 273.969516 241.140496 
L 272.357677 244.571341 
L 270.543011 247.899361 
L 268.53205 251.112576 
L 266.33203 254.199425 
L 263.950869 257.148797 
L 261.397136 259.950077 
L 258.680023 262.593185 
L 255.809308 265.068608 
L 252.795323 267.367436 
L 249.648914 269.481398 
L 246.381405 271.402884 
L 243.004556 273.124979 
L 239.53052 274.641486 
L 235.971799 275.946948 
L 232.341201 277.036665 
L 228.651793 277.906715 
L 224.916852 278.553969 
L 221.14982 278.976096 
L 217.364254 279.171577 
L 213.573778 279.139708 
L 209.792034 278.880605 
L 206.032632 278.395199 
L 202.309102 277.685238 
L 198.634844 276.753277 
L 195.023082 275.602669 
L 191.486815 274.237557 
L 188.038768 272.662852 
L 184.691351 270.884222 
L 181.456612 268.908068 
L 178.346192 266.741502 
L 175.371285 264.392321 
L 172.542597 261.868981 
L 169.870309 259.180561 
L 167.364038 256.336739 
L 165.032804 253.347747 
L 162.884997 250.224344 
L 160.928346 246.97777 
L 159.169894 243.61971 
L 157.615969 240.162249 
L 156.272164 236.617829 
L 155.143314 232.999208 
L 154.233483 229.319408 
L 153.545944 225.591672 
L 153.083172 221.829417 
L 152.846834 218.046182 
L 152.837778 214.255583 
L 153.056038 210.471262 
L 153.500828 206.706839 
L 154.170548 202.975861 
L 155.062788 199.291756 
L 156.174335 195.667782 
L 157.50119 192.116983 
L 159.038578 188.652136 
L 160.780965 185.285712 
L 162.722081 182.029827 
L 164.85494 178.896197 
L 167.171866 175.896102 
L 169.664521 173.040336 
L 172.323934 170.33918 
L 175.140533 167.802353 
L 178.104182 165.438985 
L 181.204215 163.257582 
L 184.429475 161.265996 
L 187.768355 159.471392 
L 191.208839 157.880231 
L 194.738544 156.498237 
L 198.344767 155.330386 
L 202.01453 154.38088 
L 205.734625 153.653137 
L 209.491665 153.149774 
L 213.272128 152.872605 
L 215.798733 152.814014 
L 215.798733 152.814014 
" style="fill:none;stroke:#ff0000;stroke-linecap:round;stroke-width:1.5;"/>
   </g>
   <g id="line2d_4">
    <path clip-path="url(#pb232beeb61)" d="M 216 126.641069 
L 305.358931 216 
L 216 305.358931 
L 126.641069 216 
L 216 126.641069 
" style="fill:none;stroke:#000000;stroke-linecap:round;stroke-width:1.5;"/>
   </g>
   <g id="line2d_5">
    <path clip-path="url(#pb232beeb61)" d="M 216 126.641069 
L 220.466085 126.752744 
L 224.921007 127.087491 
L 229.353632 127.644473 
L 233.752879 128.422298 
L 238.107753 129.419022 
L 242.40737 130.632152 
L 246.640982 132.058658 
L 250.798007 133.694974 
L 254.868055 135.537009 
L 258.840954 137.58016 
L 262.706772 139.81932 
L 266.455848 142.248892 
L 270.07881 144.862803 
L 273.566604 147.65452 
L 276.910511 150.617065 
L 280.102174 153.743033 
L 283.133614 157.024611 
L 285.997255 160.453598 
L 288.68594 164.021421 
L 291.192948 167.719163 
L 293.512012 171.537583 
L 295.637337 175.467135 
L 297.56361 179.497999 
L 299.286017 183.620098 
L 300.800251 187.823131 
L 302.10253 192.096591 
L 303.189596 196.429797 
L 304.058735 200.811918 
L 304.707772 205.232001 
L 305.135086 209.678999 
L 305.339609 214.141796 
L 305.320829 218.609238 
L 305.078793 223.070158 
L 304.614108 227.513406 
L 303.927932 231.927877 
L 303.021983 236.302536 
L 301.898525 240.62645 
L 300.560364 244.88881 
L 299.010847 249.078963 
L 297.253846 253.186437 
L 295.293753 257.200963 
L 293.135466 261.112508 
L 290.784381 264.911296 
L 288.246374 268.587831 
L 285.527789 272.132924 
L 282.635421 275.537713 
L 279.576498 278.793689 
L 276.358668 281.892714 
L 272.989972 284.827042 
L 269.478831 287.589337 
L 265.834021 290.172697 
L 262.064652 292.570663 
L 258.180145 294.777243 
L 254.190209 296.78692 
L 250.104818 298.594673 
L 245.934183 300.195981 
L 241.688728 301.586844 
L 237.379064 302.763784 
L 233.015964 303.72386 
L 228.610333 304.464671 
L 224.173183 304.984368 
L 219.715604 305.281649 
L 215.248737 305.355773 
L 210.783749 305.206554 
L 206.331798 304.834365 
L 201.904013 304.240137 
L 197.511461 303.425354 
L 193.16512 302.392053 
L 188.875855 301.142817 
L 184.654386 299.680769 
L 180.511264 298.009562 
L 176.456846 296.133374 
L 172.501265 294.056894 
L 168.654409 291.785312 
L 164.925891 289.324307 
L 161.325033 286.680029 
L 157.860833 283.859088 
L 154.541951 280.868535 
L 151.376682 277.715844 
L 148.372938 274.408895 
L 145.538226 270.955955 
L 142.879632 267.365653 
L 140.403801 263.646965 
L 138.116921 259.809183 
L 136.024708 255.861901 
L 134.132391 251.814986 
L 132.444701 247.678551 
L 130.965856 243.462937 
L 129.699552 239.178679 
L 128.648954 234.836487 
L 127.816688 230.447214 
L 127.204834 226.02183 
L 126.814922 221.571397 
L 126.647926 217.107038 
L 126.704264 212.639912 
L 126.983795 208.181184 
L 127.48582 203.742 
L 128.209085 199.333454 
L 129.151781 194.966566 
L 130.311552 190.65225 
L 131.685499 186.401291 
L 133.27019 182.224313 
L 135.061661 178.131757 
L 137.055436 174.133851 
L 139.246532 170.240589 
L 141.629471 166.461702 
L 144.198298 162.806635 
L 146.946591 159.284523 
L 149.867483 155.904171 
L 152.953671 152.674026 
L 156.197442 149.602164 
L 159.590688 146.696262 
L 163.124928 143.963583 
L 166.791329 141.410958 
L 170.580725 139.044766 
L 174.483646 136.870922 
L 178.490336 134.89486 
L 182.590781 133.121519 
L 186.774731 131.55533 
L 191.03173 130.200209 
L 195.351136 129.059543 
L 199.722153 128.136183 
L 204.133857 127.432437 
L 208.57522 126.950063 
L 213.035141 126.690268 
L 215.715365 126.641522 
L 215.715365 126.641522 
" style="fill:none;stroke:#ff0000;stroke-linecap:round;stroke-width:1.5;"/>
   </g>
   <g id="line2d_6">
    <path clip-path="url(#pb232beeb61)" d="M 216 105.546287 
L 321.047724 181.867925 
L 280.923064 305.358931 
L 151.076936 305.358931 
L 110.952276 181.867925 
L 216 105.546287 
" style="fill:none;stroke:#000000;stroke-linecap:round;stroke-width:1.5;"/>
   </g>
   <g id="line2d_7">
    <path clip-path="url(#pb232beeb61)" d="M 216 105.546287 
L 221.520385 105.684325 
L 227.026972 106.098095 
L 232.505997 106.786563 
L 237.943765 107.748007 
L 243.326686 108.980025 
L 248.641304 110.479537 
L 253.874336 112.242796 
L 259.012702 114.265393 
L 264.043558 116.542274 
L 268.954331 119.067747 
L 273.732745 121.835501 
L 278.366858 124.838617 
L 282.845086 128.069588 
L 287.156236 131.52034 
L 291.289532 135.182247 
L 295.234644 139.046157 
L 298.98171 143.102411 
L 302.521366 147.340871 
L 305.844763 151.750943 
L 308.943595 156.321604 
L 311.810116 161.04143 
L 314.437162 165.898624 
L 316.818167 170.881045 
L 318.947178 175.97624 
L 320.818875 181.171474 
L 322.42858 186.453761 
L 323.772268 191.809898 
L 324.846582 197.226498 
L 325.648836 202.690022 
L 326.177025 208.186813 
L 326.429829 213.703134 
L 326.406616 219.225196 
L 326.107444 224.739196 
L 325.533061 230.231353 
L 324.684902 235.687939 
L 323.565087 241.095315 
L 322.176416 246.439966 
L 320.522359 251.708533 
L 318.60705 256.887847 
L 316.435277 261.964963 
L 314.012469 266.927191 
L 311.34468 271.762127 
L 308.438579 276.457687 
L 305.30143 281.002134 
L 301.941074 285.384109 
L 298.36591 289.592661 
L 294.584874 293.617269 
L 290.607417 297.447874 
L 286.44348 301.074902 
L 282.103471 304.489287 
L 277.598237 307.682495 
L 272.939041 310.646545 
L 268.137526 313.374027 
L 263.205695 315.858125 
L 258.155874 318.09263 
L 253.000685 320.071956 
L 247.753014 321.791157 
L 242.425977 323.245935 
L 237.032889 324.432654 
L 231.587229 325.348347 
L 226.102609 325.990727 
L 220.592739 326.358187 
L 215.071388 326.44981 
L 209.552359 326.265365 
L 204.049446 325.805314 
L 198.576402 325.070807 
L 193.146909 324.06368 
L 187.774536 322.78645 
L 182.472713 321.24231 
L 177.25469 319.435118 
L 172.13351 317.369393 
L 167.121974 315.050297 
L 162.232607 312.483627 
L 157.477631 309.675798 
L 152.86893 306.633828 
L 148.418024 303.365321 
L 144.136038 299.878446 
L 140.033674 296.181919 
L 136.121186 292.284978 
L 132.408354 288.197365 
L 128.904458 283.929296 
L 125.618255 279.491439 
L 122.557959 274.894887 
L 119.73122 270.151128 
L 117.145102 265.27202 
L 114.80607 260.269757 
L 112.719971 255.156843 
L 110.892017 249.946057 
L 109.326779 244.650423 
L 108.028169 239.283179 
L 106.999431 233.857738 
L 106.243139 228.387663 
L 105.761181 222.886625 
L 105.554763 217.368374 
L 105.624401 211.846703 
L 105.96992 206.335412 
L 106.590457 200.848279 
L 107.484461 195.399016 
L 108.649697 190.001246 
L 110.083253 184.668458 
L 111.781546 179.413984 
L 113.74033 174.250955 
L 115.954711 169.192277 
L 118.419153 164.250594 
L 121.127496 159.438258 
L 124.072971 154.767296 
L 127.248215 150.249384 
L 130.645293 145.895815 
L 134.255713 141.71747 
L 138.070451 137.724792 
L 142.079973 133.927761 
L 146.274256 130.335869 
L 150.642817 126.958092 
L 155.174737 123.802873 
L 159.858688 120.8781 
L 164.682964 118.191081 
L 169.635506 115.748534 
L 174.703934 113.556563 
L 179.875581 111.620648 
L 185.137521 109.945626 
L 190.4766 108.535686 
L 195.879475 107.39435 
L 201.332641 106.524471 
L 206.822467 105.928225 
L 212.335232 105.6071 
L 215.648172 105.546847 
L 215.648172 105.546847 
" style="fill:none;stroke:#ff0000;stroke-linecap:round;stroke-width:1.5;"/>
   </g>
   <g id="line2d_8">
    <path clip-path="url(#pb232beeb61)" d="M 216 88.459038 
L 326.453713 152.229519 
L 326.453713 279.770481 
L 216 343.540962 
L 105.546287 279.770481 
L 105.546287 152.229519 
L 216 88.459038 
" style="fill:none;stroke:#000000;stroke-linecap:round;stroke-width:1.5;"/>
   </g>
   <g id="line2d_9">
    <path clip-path="url(#pb232beeb61)" d="M 216 88.459038 
L 221.100278 88.561057 
L 226.192397 88.866951 
L 231.26821 89.376231 
L 236.319597 90.088082 
L 241.338478 91.001366 
L 246.316822 92.11462 
L 251.246665 93.426065 
L 256.120122 94.933601 
L 260.929395 96.634819 
L 265.66679 98.526995 
L 270.324729 100.607102 
L 274.89576 102.871814 
L 279.372571 105.317507 
L 283.747999 107.940268 
L 288.015044 110.735902 
L 292.166881 113.699935 
L 296.196867 116.827627 
L 300.098556 120.113974 
L 303.865704 123.553718 
L 307.492286 127.141356 
L 310.9725 130.871149 
L 314.300778 134.73713 
L 317.471796 138.733114 
L 320.480481 142.852709 
L 323.322019 147.089324 
L 325.991865 151.436181 
L 328.485747 155.886327 
L 330.799677 160.432642 
L 332.929951 165.067852 
L 334.873162 169.784543 
L 336.626201 174.575169 
L 338.186265 179.432066 
L 339.550856 184.347464 
L 340.717792 189.313499 
L 341.685207 194.322227 
L 342.451552 199.365635 
L 343.015601 204.435654 
L 343.376453 209.524173 
L 343.533529 214.623053 
L 343.486579 219.724135 
L 343.235678 224.81926 
L 342.781227 229.900275 
L 342.123952 234.959053 
L 341.264907 239.987501 
L 340.205464 244.977574 
L 338.947319 249.921289 
L 337.492484 254.810737 
L 335.843288 259.638096 
L 334.002368 264.395643 
L 331.972669 269.075768 
L 329.757438 273.670983 
L 327.36022 278.173936 
L 324.78485 282.577425 
L 322.035447 286.874404 
L 319.116409 291.057999 
L 316.032408 295.121517 
L 312.788376 299.058458 
L 309.389503 302.862522 
L 305.841227 306.527626 
L 302.149224 310.047904 
L 298.319401 313.417726 
L 294.357884 316.6317 
L 290.271011 319.684685 
L 286.065321 322.571797 
L 281.747541 325.288416 
L 277.324579 327.830197 
L 272.803511 330.193074 
L 268.191569 332.373267 
L 263.496132 334.367286 
L 258.724711 336.171944 
L 253.88494 337.784352 
L 248.984561 339.201931 
L 244.031413 340.422413 
L 239.033422 341.443846 
L 233.998582 342.264596 
L 228.934948 342.883349 
L 223.85062 343.299116 
L 218.753734 343.511231 
L 213.652442 343.519355 
L 208.554906 343.323476 
L 203.46928 342.923907 
L 198.403701 342.321286 
L 193.366272 341.516578 
L 188.365052 340.511071 
L 183.408042 339.306372 
L 178.503172 337.904409 
L 173.65829 336.307425 
L 168.881145 334.517976 
L 164.17938 332.538922 
L 159.560517 330.373431 
L 155.031945 328.024967 
L 150.600909 325.497287 
L 146.274498 322.794435 
L 142.059632 319.920735 
L 137.963056 316.880783 
L 133.991322 313.679444 
L 130.150784 310.321838 
L 126.447587 306.813338 
L 122.887654 303.159555 
L 119.476682 299.366336 
L 116.220126 295.439749 
L 113.123196 291.386075 
L 110.190848 287.211799 
L 107.427771 282.9236 
L 104.838387 278.528337 
L 102.426838 274.033042 
L 100.196982 269.444907 
L 98.152386 264.771271 
L 96.296321 260.019611 
L 94.631756 255.19753 
L 93.161354 250.312741 
L 91.887469 245.373059 
L 90.812136 240.386386 
L 89.937078 235.3607 
L 89.263693 230.304041 
L 88.79306 225.224499 
L 88.52593 220.1302 
L 88.462732 215.029293 
L 88.603566 209.929939 
L 88.948207 204.840295 
L 89.496104 199.768505 
L 90.246381 194.722682 
L 91.197836 189.710898 
L 92.348948 184.741171 
L 93.697875 179.821452 
L 95.24246 174.95961 
L 96.980231 170.163425 
L 98.908408 165.440568 
L 101.023907 160.798595 
L 103.323343 156.244933 
L 105.803038 151.786866 
L 108.459024 147.431527 
L 111.287053 143.185882 
L 114.2826 139.056725 
L 117.440874 135.05066 
L 120.756821 131.174097 
L 124.225136 127.433237 
L 127.840272 123.834066 
L 131.596445 120.38234 
L 135.487646 117.083582 
L 139.507649 113.943069 
L 143.650023 110.965825 
L 147.908142 108.156614 
L 152.275193 105.519929 
L 156.744191 103.059989 
L 161.307985 100.780728 
L 165.959275 98.685794 
L 170.690619 96.778538 
L 175.494449 95.06201 
L 180.363078 93.538958 
L 185.28872 92.211817 
L 190.263493 91.08271 
L 195.279438 90.153445 
L 200.328532 89.425508 
L 205.402698 88.900062 
L 210.493816 88.577949 
L 215.593744 88.459685 
L 215.593744 88.459685 
" style="fill:none;stroke:#ff0000;stroke-linecap:round;stroke-width:1.5;"/>
   </g>
   <g id="line2d_10">
    <path clip-path="url(#pb232beeb61)" d="M 216 74.440212 
L 326.675899 127.738916 
L 354.010589 247.500016 
L 277.42049 343.540962 
L 154.57951 343.540962 
L 77.989411 247.500016 
L 105.324101 127.738916 
L 216 74.440212 
" style="fill:none;stroke:#000000;stroke-linecap:round;stroke-width:1.5;"/>
   </g>
   <g id="line2d_11">
    <path clip-path="url(#pb232beeb61)" d="M 216 74.440212 
L 221.660882 74.553444 
L 227.312707 74.892961 
L 232.946435 75.45822 
L 238.553052 76.248315 
L 244.123588 77.261983 
L 249.649133 78.497602 
L 255.120847 79.953196 
L 260.529976 81.626435 
L 265.867866 83.514644 
L 271.125978 85.614801 
L 276.295901 87.923546 
L 281.369362 90.437186 
L 286.338247 93.151701 
L 291.194606 96.062746 
L 295.930669 99.165665 
L 300.53886 102.455494 
L 305.011807 105.926971 
L 309.342355 109.57454 
L 313.523574 113.392368 
L 317.548776 117.374346 
L 321.411522 121.514104 
L 325.105633 125.805019 
L 328.625197 130.240227 
L 331.964585 134.812632 
L 335.118454 139.51492 
L 338.08176 144.339568 
L 340.84976 149.278857 
L 343.418028 154.324885 
L 345.782454 159.469581 
L 347.939256 164.704713 
L 349.884983 170.021907 
L 351.616522 175.412656 
L 353.131105 180.868336 
L 354.426306 186.380219 
L 355.500055 191.939487 
L 356.350634 197.537247 
L 356.976682 203.164544 
L 357.377197 208.812375 
L 357.551538 214.471704 
L 357.499428 220.133478 
L 357.220948 225.78864 
L 356.716545 231.428142 
L 355.987026 237.042962 
L 355.033557 242.624118 
L 353.857664 248.16268 
L 352.461229 253.64979 
L 350.846484 259.076668 
L 349.016014 264.434632 
L 346.972747 269.715112 
L 344.719951 274.909658 
L 342.261231 280.009962 
L 339.60052 285.007863 
L 336.742074 289.895367 
L 333.690467 294.664654 
L 330.45058 299.308094 
L 327.027596 303.818258 
L 323.426992 308.187933 
L 319.654528 312.410126 
L 315.716239 316.478084 
L 311.618425 320.385298 
L 307.367642 324.125518 
L 302.97069 327.692761 
L 298.434603 331.081318 
L 293.766639 334.28577 
L 288.974265 337.300991 
L 284.065148 340.122155 
L 279.04714 342.74475 
L 273.928271 345.164581 
L 268.716729 347.377776 
L 263.420852 349.380795 
L 258.049111 351.170433 
L 252.6101 352.743827 
L 247.112522 354.09846 
L 241.565169 355.232165 
L 235.976918 356.143128 
L 230.356709 356.829892 
L 224.713531 357.291359 
L 219.056414 357.526789 
L 213.394407 357.535807 
L 207.736569 357.318397 
L 202.09195 356.874908 
L 196.469581 356.20605 
L 190.878457 355.312891 
L 185.327521 354.196862 
L 179.825656 352.859747 
L 174.381661 351.303686 
L 169.004247 349.531168 
L 163.702016 347.545029 
L 158.483451 345.348445 
L 153.3569 342.944932 
L 148.330564 340.338333 
L 143.412485 337.53282 
L 138.610531 334.532881 
L 133.932383 331.343314 
L 129.385526 327.969222 
L 124.977234 324.416003 
L 120.714559 320.689342 
L 116.60432 316.795201 
L 112.653093 312.739808 
L 108.867199 308.529653 
L 105.252695 304.171469 
L 101.815362 299.672231 
L 98.560701 295.039134 
L 95.493918 290.279592 
L 92.619918 285.401218 
L 89.943301 280.411817 
L 87.468347 275.319371 
L 85.199016 270.132027 
L 83.138939 264.858083 
L 81.291412 259.505976 
L 79.659389 254.084269 
L 78.245483 248.601636 
L 77.051954 243.066846 
L 76.080712 237.488756 
L 75.333312 231.876288 
L 74.810948 226.238421 
L 74.514457 220.584176 
L 74.444312 214.922596 
L 74.600626 209.26274 
L 74.983149 203.613662 
L 75.591269 197.9844 
L 76.424013 192.383959 
L 77.480048 186.821299 
L 78.757686 181.305318 
L 80.254883 175.844841 
L 81.969242 170.448604 
L 83.898023 165.12524 
L 86.038138 159.883264 
L 88.386164 154.731063 
L 90.938346 149.676879 
L 93.690599 144.728798 
L 96.638522 139.894736 
L 99.777397 135.182426 
L 103.102204 130.599407 
L 106.607623 126.153011 
L 110.288046 121.850351 
L 114.137586 117.69831 
L 118.150085 113.70353 
L 122.319122 109.872404 
L 126.638028 106.211058 
L 131.099895 102.725352 
L 135.697584 99.420861 
L 140.423739 96.302872 
L 145.270801 93.376372 
L 150.231014 90.646045 
L 155.296443 88.116256 
L 160.458985 85.791055 
L 165.710381 83.67416 
L 171.04223 81.768958 
L 176.446001 80.078497 
L 181.913051 78.605482 
L 187.434632 77.352269 
L 193.001912 76.320862 
L 198.605983 75.512912 
L 204.237882 74.929712 
L 209.888597 74.572194 
L 215.549089 74.44093 
L 215.549089 74.44093 
" style="fill:none;stroke:#ff0000;stroke-linecap:round;stroke-width:1.5;"/>
   </g>
   <g id="line2d_12">
    <path clip-path="url(#pb232beeb61)" d="M 216 62.776789 
L 324.345171 107.654829 
L 369.223211 216 
L 324.345171 324.345171 
L 216 369.223211 
L 107.654829 324.345171 
L 62.776789 216 
L 107.654829 107.654829 
L 216 62.776789 
" style="fill:none;stroke:#000000;stroke-linecap:round;stroke-width:1.5;"/>
   </g>
   <g id="line2d_13">
    <path clip-path="url(#pb232beeb61)" d="M 216 62.776789 
L 222.127294 62.899351 
L 228.244786 63.266842 
L 234.342689 63.878673 
L 240.411247 64.733866 
L 246.440753 65.831052 
L 252.42156 67.168477 
L 258.3441 68.744 
L 264.198898 70.555101 
L 269.976589 72.598884 
L 275.667929 74.872077 
L 281.263812 77.371045 
L 286.755288 80.09179 
L 292.13357 83.029959 
L 297.390055 86.180852 
L 302.516333 89.539427 
L 307.504203 93.100313 
L 312.345686 96.857811 
L 317.033037 100.805912 
L 321.558756 104.938299 
L 325.915604 109.248361 
L 330.09661 113.729203 
L 334.095086 118.373656 
L 337.904635 123.17429 
L 341.519162 128.123426 
L 344.932886 133.213146 
L 348.140345 138.435307 
L 351.136407 143.781555 
L 353.91628 149.243337 
L 356.475516 154.811915 
L 358.810021 160.478381 
L 360.916061 166.23367 
L 362.790266 172.068575 
L 364.429638 177.97376 
L 365.831554 183.93978 
L 366.993772 189.957089 
L 367.914431 196.016061 
L 368.592061 202.107003 
L 369.025575 208.22017 
L 369.214281 214.345784 
L 369.157877 220.474045 
L 368.856453 226.595147 
L 368.310491 232.6993 
L 367.520865 238.776738 
L 366.488838 244.817737 
L 365.216061 250.812634 
L 363.70457 256.751839 
L 361.956783 262.625849 
L 359.975496 268.425268 
L 357.76388 274.140818 
L 355.325471 279.763354 
L 352.664172 285.283883 
L 349.784239 290.693573 
L 346.690279 295.983769 
L 343.387243 301.146007 
L 339.880415 306.172031 
L 336.175404 311.053798 
L 332.278139 315.7835 
L 328.194853 320.353569 
L 323.932079 324.756694 
L 319.496637 328.985833 
L 314.895623 333.034218 
L 310.136396 336.895373 
L 305.226572 340.563121 
L 300.174004 344.031595 
L 294.986775 347.295246 
L 289.673185 350.348852 
L 284.241733 353.187529 
L 278.701109 355.806735 
L 273.060177 358.20228 
L 267.32796 360.370332 
L 261.51363 362.307422 
L 255.626487 364.010452 
L 249.675951 365.476696 
L 243.67154 366.703809 
L 237.622861 367.689829 
L 231.539589 368.433177 
L 225.431458 368.932665 
L 219.308239 369.187493 
L 213.179727 369.197253 
L 207.055726 368.961931 
L 200.946035 368.481902 
L 194.860427 367.757935 
L 188.808637 366.791187 
L 182.800348 365.583206 
L 176.845172 364.135923 
L 170.952635 362.451655 
L 165.132164 360.533095 
L 159.39307 358.383313 
L 153.744536 356.005748 
L 148.195597 353.404204 
L 142.755131 350.582842 
L 137.43184 347.546177 
L 132.234242 344.299065 
L 127.170652 340.846703 
L 122.249169 337.194612 
L 117.477668 333.348636 
L 112.863782 329.314928 
L 108.414891 325.099939 
L 104.138114 320.710414 
L 100.040292 316.153374 
L 96.12798 311.436111 
L 92.407439 306.56617 
L 88.884619 301.551342 
L 85.565156 296.399651 
L 82.454362 291.119337 
L 79.557212 285.718849 
L 76.878341 280.206825 
L 74.422035 274.592084 
L 72.192224 268.883608 
L 70.192475 263.090529 
L 68.425986 257.222116 
L 66.895585 251.287756 
L 65.603719 245.296943 
L 64.552454 239.259262 
L 63.743474 233.18437 
L 63.178071 227.081988 
L 62.857151 220.961876 
L 62.781227 214.833826 
L 62.95042 208.707642 
L 63.36446 202.593125 
L 64.022684 196.500055 
L 64.92404 190.438181 
L 66.067085 184.417201 
L 67.44999 178.446747 
L 69.070544 172.536369 
L 70.926153 166.695524 
L 73.01385 160.933556 
L 75.330294 155.259682 
L 77.87178 149.68298 
L 80.634241 144.212371 
L 83.613259 138.856607 
L 86.804067 133.624256 
L 90.201561 128.523689 
L 93.800306 123.563064 
L 97.594544 118.75032 
L 101.578206 114.093154 
L 105.744918 109.599017 
L 110.088015 105.275099 
L 114.600548 101.128317 
L 119.275299 97.165306 
L 124.104789 93.392405 
L 129.081291 89.815649 
L 134.196845 86.440762 
L 139.443266 83.273142 
L 144.812162 80.317856 
L 150.294944 77.579633 
L 155.882839 75.062854 
L 161.566909 72.771543 
L 167.33806 70.709367 
L 173.18706 68.879626 
L 179.104552 67.285245 
L 185.081068 65.928777 
L 191.107048 64.81239 
L 197.172852 63.937872 
L 203.268775 63.30662 
L 209.385065 62.919645 
L 215.511938 62.777567 
L 215.511938 62.777567 
" style="fill:none;stroke:#ff0000;stroke-linecap:round;stroke-width:1.5;"/>
   </g>
   <g id="line2d_14">
    <path clip-path="url(#pb232beeb61)" d="M 216 52.943265 
L 320.810849 91.091294 
L 376.579537 187.685495 
L 357.211275 297.528368 
L 271.768688 369.223211 
L 160.231312 369.223211 
L 74.788725 297.528368 
L 55.420463 187.685495 
L 111.189151 91.091294 
L 216 52.943265 
" style="fill:none;stroke:#000000;stroke-linecap:round;stroke-width:1.5;"/>
   </g>
   <g id="line2d_15">
    <path clip-path="url(#pb232beeb61)" d="M 216 52.943265 
L 222.52053 53.073693 
L 229.030629 53.464768 
L 235.519882 54.115865 
L 241.977907 55.025942 
L 248.394372 56.193544 
L 254.759014 57.616801 
L 261.06165 59.293438 
L 267.292196 61.220772 
L 273.440686 63.39572 
L 279.497283 65.814801 
L 285.452299 68.474148 
L 291.296205 71.369504 
L 297.019653 74.496238 
L 302.613487 77.849348 
L 308.068758 81.423469 
L 313.376739 85.212884 
L 318.528938 89.211531 
L 323.517112 93.413012 
L 328.333282 97.810607 
L 332.969742 102.397279 
L 337.419076 107.165691 
L 341.674165 112.108215 
L 345.728203 117.216943 
L 349.574703 122.483704 
L 353.207511 127.90007 
L 356.620818 133.457378 
L 359.809161 139.146736 
L 362.767439 144.959043 
L 365.490922 150.885 
L 367.97525 156.915128 
L 370.216451 163.039778 
L 372.210938 169.249154 
L 373.955521 175.533321 
L 375.447409 181.882226 
L 376.684216 188.285713 
L 377.663961 194.733536 
L 378.385079 201.215381 
L 378.846415 207.720878 
L 379.047232 214.23962 
L 378.987208 220.761179 
L 378.666439 227.27512 
L 378.085439 233.771024 
L 377.245137 240.238498 
L 376.146876 246.667195 
L 374.792415 253.046832 
L 373.18392 259.367201 
L 371.323964 265.618192 
L 369.215523 271.789805 
L 366.86197 277.872166 
L 364.26707 283.855544 
L 361.434974 289.730369 
L 358.370213 295.48724 
L 355.07769 301.116949 
L 351.562673 306.610488 
L 347.830784 311.959071 
L 343.887994 317.154139 
L 339.740611 322.187382 
L 335.395269 327.050748 
L 330.85892 331.736457 
L 326.138821 336.237012 
L 321.242524 340.545213 
L 316.177861 344.654169 
L 310.952934 348.557305 
L 305.576104 352.248378 
L 300.055971 355.721482 
L 294.401366 358.971063 
L 288.621335 361.991919 
L 282.725126 364.77922 
L 276.722172 367.328506 
L 270.622074 369.635699 
L 264.434593 371.697107 
L 258.169627 373.509433 
L 251.837198 375.069777 
L 245.447438 376.375644 
L 239.010568 377.424944 
L 232.536886 378.215999 
L 226.036748 378.747542 
L 219.520554 379.018725 
L 212.998728 379.029112 
L 206.481703 378.778687 
L 199.979905 378.267851 
L 193.503736 377.497421 
L 187.063556 376.46863 
L 180.669669 375.183123 
L 174.332302 373.642957 
L 168.061595 371.850596 
L 161.867579 369.808907 
L 155.760163 367.521157 
L 149.749119 364.991005 
L 143.844061 362.2225 
L 138.054438 359.220069 
L 132.389511 355.988517 
L 126.858343 352.533014 
L 121.469782 348.859086 
L 116.23245 344.972613 
L 111.154724 340.87981 
L 106.244729 336.587227 
L 101.510319 332.10173 
L 96.959067 327.430495 
L 92.598256 322.580995 
L 88.434861 317.560988 
L 84.475543 312.378505 
L 80.726637 307.041837 
L 77.194139 301.559521 
L 73.8837 295.940329 
L 70.800617 290.193249 
L 67.949823 284.327476 
L 65.335877 278.352393 
L 62.962962 272.27756 
L 60.834873 266.112694 
L 58.955015 259.867659 
L 57.326396 253.552446 
L 55.95162 247.177156 
L 54.832888 240.751989 
L 53.971989 234.287225 
L 53.3703 227.793205 
L 53.028784 221.280318 
L 52.947988 214.758984 
L 53.128039 208.239635 
L 53.568651 201.732701 
L 54.269119 195.248592 
L 55.228321 188.797681 
L 56.444724 182.390287 
L 57.916381 176.036662 
L 59.640939 169.74697 
L 61.615637 163.531273 
L 63.837317 157.399514 
L 66.302426 151.361504 
L 69.007018 145.426902 
L 71.946768 139.605201 
L 75.116973 133.905716 
L 78.51256 128.337564 
L 82.128097 122.909654 
L 85.957802 117.630668 
L 89.995546 112.509052 
L 94.23487 107.552999 
L 98.668992 102.770439 
L 103.290819 98.169022 
L 108.092957 93.756109 
L 113.067723 89.53876 
L 118.207159 85.523722 
L 123.503042 81.717419 
L 128.946901 78.125939 
L 134.530026 74.755028 
L 140.243485 71.610079 
L 146.078139 68.696123 
L 152.024653 66.017821 
L 158.073514 63.57946 
L 164.215045 61.384938 
L 170.439421 59.437768 
L 176.736684 57.741064 
L 183.09676 56.29754 
L 189.509474 55.109506 
L 195.964568 54.178863 
L 202.451713 53.507099 
L 208.960533 53.095289 
L 215.480615 52.944092 
L 215.480615 52.944092 
" style="fill:none;stroke:#ff0000;stroke-linecap:round;stroke-width:1.5;"/>
   </g>
   <g id="line2d_16">
    <path clip-path="url(#pb232beeb61)" d="M 216 44.552003 
L 316.774604 77.295656 
L 379.056735 163.019655 
L 379.056735 268.980345 
L 316.774604 354.704344 
L 216 387.447997 
L 115.225396 354.704344 
L 52.943265 268.980345 
L 52.943265 163.019655 
L 115.225396 77.295656 
L 216 44.552003 
" style="fill:none;stroke:#000000;stroke-linecap:round;stroke-width:1.5;"/>
   </g>
   <g id="line2d_17">
    <path clip-path="url(#pb232beeb61)" d="M 216 44.552003 
L 222.856091 44.689143 
L 229.701214 45.100344 
L 236.524418 45.784948 
L 243.314787 46.741859 
L 250.061459 47.969548 
L 256.753639 49.466049 
L 263.380623 51.22897 
L 269.931807 53.255489 
L 276.396712 55.542364 
L 282.764995 58.085937 
L 289.026468 60.882139 
L 295.171115 63.926497 
L 301.189105 67.21414 
L 307.07081 70.739808 
L 312.806821 74.497862 
L 318.387962 78.482289 
L 323.805305 82.686715 
L 329.050182 87.104413 
L 334.114202 91.728318 
L 338.989265 96.55103 
L 343.667572 101.564835 
L 348.141637 106.761712 
L 352.404304 112.133347 
L 356.448754 117.671147 
L 360.268515 123.366252 
L 363.857478 129.209551 
L 367.2099 135.191696 
L 370.320418 141.303117 
L 373.184057 147.534037 
L 375.796235 153.874489 
L 378.152773 160.314327 
L 380.249901 166.843251 
L 382.084264 173.450816 
L 383.652928 180.12645 
L 384.953383 186.859474 
L 385.983548 193.639116 
L 386.741776 200.454532 
L 387.226854 207.294816 
L 387.438005 214.149027 
L 387.374892 221.0062 
L 387.037616 227.855363 
L 386.426716 234.68556 
L 385.54317 241.485865 
L 384.388391 248.245397 
L 382.964226 254.953344 
L 381.272954 261.598974 
L 379.317281 268.171655 
L 377.100335 274.660872 
L 374.625662 281.056245 
L 371.897223 287.347542 
L 368.919381 293.524697 
L 365.696901 299.57783 
L 362.234937 305.497256 
L 358.539029 311.273506 
L 354.615089 316.897338 
L 350.469395 322.359756 
L 346.108578 327.652021 
L 341.539615 332.765667 
L 336.769815 337.692512 
L 331.80681 342.424676 
L 326.658538 346.954587 
L 321.333236 351.274998 
L 315.839424 355.378999 
L 310.185889 359.260022 
L 304.381678 362.911861 
L 298.436074 366.328671 
L 292.358591 369.504988 
L 286.15895 372.43573 
L 279.84707 375.116208 
L 273.433047 377.542133 
L 266.927145 379.709626 
L 260.33977 381.615219 
L 253.68146 383.255862 
L 246.962868 384.628932 
L 240.194743 385.732231 
L 233.387911 386.563995 
L 226.553262 387.122893 
L 219.70173 387.408031 
L 212.844276 387.418952 
L 205.99187 387.15564 
L 199.155475 386.618515 
L 192.346028 385.808437 
L 185.574423 384.726702 
L 178.851491 383.37504 
L 172.18799 381.755614 
L 165.594578 379.871014 
L 159.081804 377.724255 
L 152.660088 375.318773 
L 146.339701 372.658414 
L 140.130756 369.747435 
L 134.043186 366.590493 
L 128.086729 363.192638 
L 122.270915 359.559306 
L 116.605047 355.69631 
L 111.09819 351.60983 
L 105.759153 347.306403 
L 100.596479 342.792914 
L 95.618425 338.076583 
L 90.832956 333.164956 
L 86.247728 328.06589 
L 81.870075 322.787542 
L 77.707002 317.338357 
L 73.765169 311.727052 
L 70.05088 305.962605 
L 66.570079 300.054236 
L 63.328334 294.011399 
L 60.330831 287.843759 
L 57.582366 281.561186 
L 55.087335 275.173728 
L 52.84973 268.691605 
L 50.873131 262.125187 
L 49.160699 255.484978 
L 47.715175 248.781602 
L 46.53887 242.025782 
L 45.633667 235.228326 
L 45.001014 228.400109 
L 44.641923 221.552055 
L 44.556968 214.695119 
L 44.746286 207.84027 
L 45.209573 200.998475 
L 45.946088 194.180679 
L 46.954653 187.397789 
L 48.233655 180.660657 
L 49.781047 173.98006 
L 51.594353 167.366686 
L 53.670674 160.831115 
L 56.006687 154.383803 
L 58.598656 148.035063 
L 61.442433 141.795053 
L 64.533468 135.673755 
L 67.866819 129.680962 
L 71.43715 123.82626 
L 75.238752 118.119017 
L 79.265541 112.568363 
L 83.511076 107.183177 
L 87.968565 101.972075 
L 92.630878 96.943394 
L 97.490554 92.105177 
L 102.539821 87.465166 
L 107.770599 83.030783 
L 113.174522 78.809123 
L 118.742943 74.806938 
L 124.466955 71.030633 
L 130.3374 67.486247 
L 136.344887 64.179452 
L 142.479805 61.115537 
L 148.73234 58.299405 
L 155.092489 55.73556 
L 161.550076 53.428103 
L 168.094772 51.380727 
L 174.716107 49.596707 
L 181.403486 48.078896 
L 188.146213 46.829724 
L 194.9335 45.851188 
L 201.754488 45.144853 
L 208.598267 44.711851 
L 215.453886 44.552872 
L 215.453886 44.552872 
" style="fill:none;stroke:#ff0000;stroke-linecap:round;stroke-width:1.5;"/>
   </g>
   <g id="line2d_18">
    <path clip-path="url(#pb232beeb61)" d="M 216 37.313963 
L 312.604965 65.67974 
L 378.538537 141.771137 
L 392.867271 241.429675 
L 351.041897 333.01447 
L 266.341674 387.447997 
L 165.658326 387.447997 
L 80.958103 333.01447 
L 39.132729 241.429675 
L 53.461463 141.771137 
L 119.395035 65.67974 
L 216 37.313963 
" style="fill:none;stroke:#000000;stroke-linecap:round;stroke-width:1.5;"/>
   </g>
   <g id="line2d_19">
    <path clip-path="url(#pb232beeb61)" d="M 216 37.313963 
L 223.145536 37.456892 
L 230.27964 37.885453 
L 237.3909 38.598959 
L 244.467939 39.596269 
L 251.499435 40.875787 
L 258.47414 42.435466 
L 265.380896 44.272812 
L 272.208652 46.384885 
L 278.946487 48.768305 
L 285.58362 51.419261 
L 292.109435 54.33351 
L 298.513491 57.506392 
L 304.785543 60.93283 
L 310.915557 64.607342 
L 316.893726 68.524049 
L 322.710487 72.676687 
L 328.356534 77.058612 
L 333.822834 81.662813 
L 339.100643 86.481925 
L 344.181517 91.508239 
L 349.057328 96.733713 
L 353.720276 102.149987 
L 358.162901 107.748397 
L 362.378095 113.519986 
L 366.359116 119.455522 
L 370.099594 125.545508 
L 373.593546 131.780202 
L 376.835381 138.14963 
L 379.819915 144.643602 
L 382.542371 151.251729 
L 384.998395 157.963439 
L 387.184058 164.767995 
L 389.095863 171.654512 
L 390.730751 178.611972 
L 392.086107 185.629245 
L 393.159764 192.695104 
L 393.950002 199.798247 
L 394.455558 206.927308 
L 394.675624 214.070885 
L 394.609846 221.217547 
L 394.258331 228.355862 
L 393.621641 235.474411 
L 392.700794 242.561805 
L 391.497263 249.606705 
L 390.012974 256.597842 
L 388.250302 263.524031 
L 386.212065 270.374192 
L 383.901526 277.137365 
L 381.32238 283.802732 
L 378.478754 290.359629 
L 375.375196 296.797567 
L 372.016672 303.106245 
L 368.408555 309.275572 
L 364.556616 315.295678 
L 360.467019 321.156933 
L 356.146305 326.849958 
L 351.601387 332.365647 
L 346.839535 337.695177 
L 341.868368 342.830019 
L 336.695839 347.761961 
L 331.330222 352.483112 
L 325.780102 356.985919 
L 320.054356 361.263178 
L 314.162146 365.308047 
L 308.112897 369.114056 
L 301.916288 372.675114 
L 295.58223 375.985526 
L 289.120858 379.039995 
L 282.542509 381.833635 
L 275.857705 384.361976 
L 269.077142 386.620975 
L 262.211667 388.607016 
L 255.272263 390.316922 
L 248.270031 391.747959 
L 241.216175 392.897836 
L 234.121978 393.764715 
L 226.99879 394.347208 
L 219.858006 394.644384 
L 212.71105 394.655766 
L 205.569356 394.381338 
L 198.444348 393.821537 
L 191.347426 392.97726 
L 184.289943 391.849857 
L 177.283188 390.441132 
L 170.338373 388.753338 
L 163.466607 386.789176 
L 156.678882 384.551787 
L 149.986059 382.044752 
L 143.398844 379.27208 
L 136.927776 376.238208 
L 130.583206 372.947989 
L 124.375284 369.406686 
L 118.313943 365.619966 
L 112.408879 361.593886 
L 106.669538 357.334886 
L 101.105103 352.849781 
L 95.724475 348.145745 
L 90.536262 343.230305 
L 85.548764 338.111323 
L 80.769961 332.796988 
L 76.207497 327.295804 
L 71.868671 321.61657 
L 67.760424 315.768372 
L 63.889329 309.760566 
L 60.261579 303.602763 
L 56.882977 297.304815 
L 53.758928 290.876796 
L 50.89443 284.32899 
L 48.294066 277.671872 
L 45.961996 270.916093 
L 43.90195 264.072459 
L 42.117225 257.15192 
L 40.610675 250.165546 
L 39.38471 243.124515 
L 38.441292 236.040091 
L 37.78193 228.923606 
L 37.407679 221.786447 
L 37.319138 214.64003 
L 37.516448 207.495789 
L 37.999293 200.365153 
L 38.766902 193.25953 
L 39.818046 186.190286 
L 41.151043 179.168732 
L 42.763762 172.206099 
L 44.653621 165.313528 
L 46.817598 158.502044 
L 49.252231 151.782545 
L 51.953625 145.16578 
L 54.917458 138.662334 
L 58.138988 132.282613 
L 61.613063 126.036821 
L 65.334124 119.934951 
L 69.296218 113.986765 
L 73.493006 108.201778 
L 77.917776 102.589245 
L 82.563447 97.158145 
L 87.422589 91.917167 
L 92.487427 86.874695 
L 97.749859 82.038796 
L 103.201466 77.417206 
L 108.833526 73.01732 
L 114.63703 68.846175 
L 120.602693 64.910444 
L 126.720972 61.216425 
L 132.982078 57.770026 
L 139.375994 54.576762 
L 145.892493 51.641741 
L 152.521149 48.969657 
L 159.251358 46.564787 
L 166.072352 44.430976 
L 172.97322 42.57164 
L 179.942921 40.989752 
L 186.970306 39.687843 
L 194.044133 38.667995 
L 201.153084 37.931842 
L 208.285787 37.480559 
L 215.430831 37.314869 
L 215.430831 37.314869 
" style="fill:none;stroke:#ff0000;stroke-linecap:round;stroke-width:1.5;"/>
   </g>
   <g id="line2d_20">
    <path clip-path="url(#pb232beeb61)" d="M 216 31.010602 
L 308.494699 55.794482 
L 376.205518 123.505301 
L 400.989398 216 
L 376.205518 308.494699 
L 308.494699 376.205518 
L 216 400.989398 
L 123.505301 376.205518 
L 55.794482 308.494699 
L 31.010602 216 
L 55.794482 123.505301 
L 123.505301 55.794482 
L 216 31.010602 
" style="fill:none;stroke:#000000;stroke-linecap:round;stroke-width:1.5;"/>
   </g>
   <g id="line2d_21">
    <path clip-path="url(#pb232beeb61)" d="M 216 31.010602 
L 223.397603 31.158573 
L 230.783371 31.602252 
L 238.145489 32.340928 
L 245.472179 33.373419 
L 252.75172 34.698073 
L 259.972466 36.312772 
L 267.122865 38.214933 
L 274.191479 40.401511 
L 281.166998 42.86901 
L 288.038265 45.613481 
L 294.794285 48.630534 
L 301.424252 51.915343 
L 307.917558 55.462652 
L 314.263815 59.266787 
L 320.452871 63.321661 
L 326.474825 67.620788 
L 332.320043 72.157291 
L 337.979174 76.923911 
L 343.443164 81.913022 
L 348.703272 87.116645 
L 353.751083 92.526453 
L 358.578521 98.133793 
L 363.177865 103.929694 
L 367.541755 109.904883 
L 371.663211 116.049802 
L 375.535639 122.354619 
L 379.152844 128.80925 
L 382.509039 135.403366 
L 385.598855 142.126421 
L 388.41735 148.967657 
L 390.960013 155.916131 
L 393.222778 162.960726 
L 395.202024 170.090173 
L 396.894584 177.293065 
L 398.297753 184.557881 
L 399.409283 191.872997 
L 400.227398 199.226711 
L 400.750789 206.607259 
L 400.978617 214.002833 
L 400.910519 221.401602 
L 400.546604 228.79173 
L 399.887454 236.161394 
L 398.934123 243.498804 
L 397.688136 250.792221 
L 396.151487 258.029979 
L 394.326634 265.200497 
L 392.216497 272.292306 
L 389.824451 279.294058 
L 387.154323 286.194554 
L 384.210384 292.982753 
L 380.997344 299.647796 
L 377.520345 306.179021 
L 373.784946 312.565978 
L 369.797126 318.798451 
L 365.563263 324.866468 
L 361.090131 330.760321 
L 356.384886 336.470583 
L 351.455054 341.988118 
L 346.308524 347.304098 
L 340.953527 352.41002 
L 335.398632 357.297715 
L 329.652724 361.959363 
L 323.724996 366.387508 
L 317.624932 370.575065 
L 311.362289 374.515335 
L 304.947086 378.202014 
L 298.389588 381.629204 
L 291.700283 384.791423 
L 284.889874 387.683612 
L 277.969256 390.301144 
L 270.949501 392.639831 
L 263.841838 394.695932 
L 256.657638 396.466157 
L 249.408395 397.947676 
L 242.105705 399.138116 
L 234.761252 400.035575 
L 227.386785 400.638616 
L 219.994102 400.946275 
L 212.595028 400.958059 
L 205.201402 400.67395 
L 197.825052 400.094402 
L 190.477777 399.220342 
L 183.171333 398.053168 
L 175.917407 396.594749 
L 168.727605 394.847416 
L 161.613429 392.813965 
L 154.58626 390.49765 
L 147.657339 387.902176 
L 140.837753 385.031695 
L 134.138409 381.8908 
L 127.570027 378.484514 
L 121.143114 374.818288 
L 114.867952 370.897987 
L 108.75458 366.729882 
L 102.812777 362.320641 
L 97.05205 357.677319 
L 91.481614 352.807342 
L 86.110381 347.718504 
L 80.946943 342.418944 
L 75.999562 336.91714 
L 71.276151 331.221895 
L 66.784268 325.342319 
L 62.531098 319.287819 
L 58.523446 313.068081 
L 54.767722 306.693054 
L 51.269936 300.172938 
L 48.035683 293.518163 
L 45.070137 286.739376 
L 42.378042 279.84742 
L 39.963705 272.853323 
L 37.830989 265.768272 
L 35.983305 258.603602 
L 34.423609 251.370776 
L 33.154397 244.081364 
L 32.177699 236.747028 
L 31.495078 229.379502 
L 31.107624 221.99057 
L 31.01596 214.592056 
L 31.22023 207.195793 
L 31.720108 199.813616 
L 32.514795 192.457333 
L 33.60302 185.138713 
L 34.98304 177.869465 
L 36.652649 170.661218 
L 38.609175 163.525503 
L 40.849489 156.473736 
L 43.370007 149.517198 
L 46.166695 142.667019 
L 49.235081 135.934157 
L 52.570255 129.329383 
L 56.166881 122.863263 
L 60.019207 116.546143 
L 64.121068 110.388127 
L 68.465904 104.399068 
L 73.046762 98.588547 
L 77.856316 92.965859 
L 82.886869 87.539999 
L 88.130375 82.319648 
L 93.578446 77.313157 
L 99.222364 72.528535 
L 105.053103 67.973437 
L 111.061332 63.65515 
L 117.237441 59.580582 
L 123.571549 55.756252 
L 130.053522 52.188277 
L 136.672992 48.882367 
L 143.419368 45.843809 
L 150.281858 43.077465 
L 157.249482 40.587759 
L 164.311095 38.378676 
L 171.455399 36.45375 
L 178.670965 34.816059 
L 185.94625 33.468223 
L 193.269614 32.4124 
L 200.629341 31.650277 
L 208.013659 31.183075 
L 215.410753 31.01154 
L 215.410753 31.01154 
" style="fill:none;stroke:#ff0000;stroke-linecap:round;stroke-width:1.5;"/>
   </g>
   <g id="line2d_22">
    <path clip-path="url(#pb232beeb61)" d="M 216 25.47427 
L 304.541721 47.297845 
L 372.799602 107.76905 
L 405.136583 193.034661 
L 394.144652 283.561355 
L 342.341928 358.610557 
L 261.595792 400.989398 
L 170.404208 400.989398 
L 89.658072 358.610557 
L 37.855348 283.561355 
L 26.863417 193.034661 
L 59.200398 107.76905 
L 127.458279 47.297845 
L 216 25.47427 
" style="fill:none;stroke:#000000;stroke-linecap:round;stroke-width:1.5;"/>
   </g>
   <g id="line2d_23">
    <path clip-path="url(#pb232beeb61)" d="M 216 25.47427 
L 221.714915 25.56 
L 227.424686 25.817114 
L 233.124176 26.245379 
L 238.808256 26.84441 
L 244.471809 27.613669 
L 250.10974 28.552462 
L 255.716975 29.659946 
L 261.288466 30.935124 
L 266.819202 32.376847 
L 272.304203 33.983818 
L 277.738534 35.754592 
L 283.117305 37.687575 
L 288.435675 39.781026 
L 293.688858 42.033063 
L 298.872126 44.441659 
L 303.980814 47.004645 
L 309.010326 49.719716 
L 313.956135 52.584428 
L 318.81379 55.596202 
L 323.578919 58.75233 
L 328.247235 62.049969 
L 332.814536 65.486154 
L 337.276711 69.05779 
L 341.629746 72.761665 
L 345.869722 76.594444 
L 349.992825 80.552679 
L 353.995342 84.632808 
L 357.873674 88.831158 
L 361.624328 93.143952 
L 365.243931 97.567307 
L 368.729224 102.097244 
L 372.077071 106.729686 
L 375.28446 111.460464 
L 378.348503 116.28532 
L 381.266443 121.199913 
L 384.035655 126.199819 
L 386.653646 131.28054 
L 389.11806 136.437502 
L 391.42668 141.666066 
L 393.577427 146.961524 
L 395.568367 152.319113 
L 397.397707 157.73401 
L 399.063802 163.201343 
L 400.565151 168.716191 
L 401.900405 174.273591 
L 403.06836 179.868542 
L 404.067967 185.496009 
L 404.898325 191.150928 
L 405.558688 196.828209 
L 406.04846 202.522743 
L 406.367202 208.229406 
L 406.514626 213.943062 
L 406.4906 219.658569 
L 406.295145 225.370784 
L 405.928437 231.074565 
L 405.390807 236.764781 
L 404.682737 242.436309 
L 403.804866 248.084047 
L 402.757983 253.702911 
L 401.543031 259.287845 
L 400.161102 264.833823 
L 398.613441 270.335854 
L 396.90144 275.788986 
L 395.02664 281.188312 
L 392.990728 286.528973 
L 390.795536 291.806163 
L 388.44304 297.015132 
L 385.935357 302.151193 
L 383.274744 307.209724 
L 380.463595 312.186172 
L 377.504439 317.07606 
L 374.399941 321.874985 
L 371.152893 326.578631 
L 367.766218 331.182763 
L 364.242964 335.683238 
L 360.586301 340.076006 
L 356.79952 344.357115 
L 352.886029 348.52271 
L 348.84935 352.569045 
L 344.693115 356.492476 
L 340.421066 360.289473 
L 336.037046 363.95662 
L 331.545 367.490616 
L 326.948972 370.88828 
L 322.253097 374.146556 
L 317.461602 377.26251 
L 312.578798 380.233339 
L 307.60908 383.056368 
L 302.556919 385.729059 
L 297.426864 388.249005 
L 292.223529 390.613938 
L 286.951599 392.82173 
L 281.615817 394.870395 
L 276.220985 396.758089 
L 270.771958 398.483112 
L 265.27364 400.043913 
L 259.73098 401.439087 
L 254.148964 402.667379 
L 248.532617 403.727682 
L 242.886993 404.619043 
L 237.217172 405.340659 
L 231.528257 405.891882 
L 225.825368 406.272215 
L 220.113636 406.481316 
L 214.398203 406.518996 
L 208.684211 406.385222 
L 202.976803 406.080115 
L 197.281115 405.603948 
L 191.602273 404.95715 
L 185.945387 404.140304 
L 180.315548 403.154144 
L 174.717822 401.999558 
L 169.157248 400.677585 
L 163.638829 399.189414 
L 158.167532 397.536386 
L 152.74828 395.719987 
L 147.38595 393.741852 
L 142.085368 391.603761 
L 136.851305 389.307639 
L 131.68847 386.855552 
L 126.601509 384.249706 
L 121.595001 381.492447 
L 116.673452 378.586256 
L 111.841289 375.533748 
L 107.102863 372.33767 
L 102.462436 369.0009 
L 97.924186 365.526438 
L 93.492195 361.917413 
L 89.170454 358.177073 
L 84.962851 354.308782 
L 80.873172 350.316023 
L 76.905098 346.202388 
L 73.0622 341.971581 
L 69.347937 337.627407 
L 65.76565 333.173777 
L 62.318565 328.614698 
L 59.009782 323.954274 
L 55.84228 319.196698 
L 52.818909 314.346252 
L 49.94239 309.407301 
L 47.215312 304.38429 
L 44.640128 299.281738 
L 42.219157 294.104239 
L 39.954577 288.856452 
L 37.848425 283.543098 
L 35.902598 278.168961 
L 34.118847 272.738875 
L 32.498777 267.257728 
L 31.043845 261.730453 
L 29.755361 256.162024 
L 28.634485 250.557451 
L 27.682225 244.921779 
L 26.899438 239.260079 
L 26.28683 233.577447 
L 25.84495 227.878996 
L 25.574197 222.169855 
L 25.474814 216.455162 
L 25.546891 210.740059 
L 25.790363 205.029689 
L 26.205011 199.329192 
L 26.790462 193.643698 
L 27.546188 187.978323 
L 28.47151 182.338165 
L 29.565595 176.728301 
L 30.827458 171.153779 
L 32.255965 165.619615 
L 33.849828 160.13079 
L 35.607614 154.692244 
L 37.527742 149.308871 
L 39.608482 143.985515 
L 41.847963 138.726967 
L 44.244169 133.53796 
L 46.794943 128.423163 
L 49.497991 123.387179 
L 52.350879 118.434541 
L 55.35104 113.569705 
L 58.495775 108.797049 
L 61.782252 104.120869 
L 65.207516 99.545372 
L 68.768482 95.074677 
L 72.461947 90.712806 
L 76.284586 86.463685 
L 80.23296 82.331138 
L 84.303515 78.318885 
L 88.492588 74.430535 
L 92.796409 70.669587 
L 97.211105 67.039428 
L 101.732703 63.543323 
L 106.357133 60.184418 
L 111.080235 56.965738 
L 115.897758 53.890177 
L 120.805366 50.960504 
L 125.798642 48.179355 
L 130.873094 45.549234 
L 136.024154 43.072507 
L 141.247187 40.751403 
L 146.537493 38.588011 
L 151.89031 36.584278 
L 157.300821 34.742007 
L 162.764158 33.062855 
L 168.275404 31.548335 
L 173.829598 30.199809 
L 179.421743 29.018491 
L 185.046806 28.005443 
L 190.699725 27.161578 
L 196.375412 26.487654 
L 202.06876 25.984279 
L 207.774645 25.651905 
L 213.487933 25.490832 
L 215.393118 25.475237 
L 215.393118 25.475237 
" style="fill:none;stroke:#ff0000;stroke-linecap:round;stroke-width:1.5;"/>
   </g>
   <g id="line2d_24">
    <path clip-path="url(#pb232beeb61)" d="M 216 20.574546 
L 300.791927 39.92775 
L 368.789772 94.154222 
L 406.52573 172.513745 
L 406.52573 259.486255 
L 368.789772 337.845778 
L 300.791927 392.07225 
L 216 411.425454 
L 131.208073 392.07225 
L 63.210228 337.845778 
L 25.47427 259.486255 
L 25.47427 172.513745 
L 63.210228 94.154222 
L 131.208073 39.92775 
L 216 20.574546 
" style="fill:none;stroke:#000000;stroke-linecap:round;stroke-width:1.5;"/>
   </g>
   <g id="line2d_25">
    <path clip-path="url(#pb232beeb61)" d="M 216 20.574546 
L 221.861884 20.662481 
L 227.718493 20.926206 
L 233.564556 21.365485 
L 239.394812 21.979922 
L 245.204015 22.768963 
L 250.986936 23.7319 
L 256.738371 24.867865 
L 262.453144 26.175835 
L 268.126112 27.654635 
L 273.752171 29.302933 
L 279.326256 31.119246 
L 284.843352 33.101938 
L 290.298494 35.249227 
L 295.686772 37.559179 
L 301.003337 40.029716 
L 306.243405 42.658615 
L 311.40226 45.443508 
L 316.47526 48.381892 
L 321.457838 51.47112 
L 326.345512 54.708413 
L 331.133882 58.090857 
L 335.818639 61.61541 
L 340.395568 65.278897 
L 344.860549 69.078024 
L 349.209564 73.009371 
L 353.4387 77.069399 
L 357.54415 81.254456 
L 361.52222 85.560774 
L 365.369329 89.984479 
L 369.082017 94.52159 
L 372.656941 99.168023 
L 376.090884 103.919596 
L 379.380756 108.772035 
L 382.523597 113.720971 
L 385.516578 118.761952 
L 388.357005 123.89044 
L 391.042322 129.101821 
L 393.570113 134.391405 
L 395.938103 139.75443 
L 398.144161 145.186071 
L 400.186302 150.68144 
L 402.062687 156.235592 
L 403.771629 161.843527 
L 405.311588 167.5002 
L 406.68118 173.200519 
L 407.879172 178.939354 
L 408.904485 184.711542 
L 409.756198 190.511888 
L 410.433543 196.33517 
L 410.935911 202.17615 
L 411.262849 208.029571 
L 411.414065 213.890164 
L 411.38942 219.752656 
L 411.188939 225.611771 
L 410.812801 231.462236 
L 410.261344 237.298786 
L 409.535065 243.116168 
L 408.634618 248.909148 
L 407.560813 254.672511 
L 406.314615 260.401072 
L 404.897148 266.089676 
L 403.309686 271.733201 
L 401.553657 277.326571 
L 399.630643 282.864751 
L 397.542374 288.342757 
L 395.290729 293.75566 
L 392.877734 299.098587 
L 390.305561 304.366732 
L 387.576526 309.555352 
L 384.693082 314.659779 
L 381.657827 319.675419 
L 378.47349 324.597758 
L 375.142939 329.422366 
L 371.669169 334.144902 
L 368.055308 338.761115 
L 364.304607 343.266852 
L 360.420442 347.658057 
L 356.406308 351.930779 
L 352.265818 356.081172 
L 348.002699 360.105502 
L 343.620785 364.000146 
L 339.124022 367.7616 
L 334.516455 371.386479 
L 329.802232 374.871521 
L 324.985594 378.213589 
L 320.070876 381.409676 
L 315.062502 384.456905 
L 309.964978 387.352534 
L 304.782892 390.093958 
L 299.520907 392.678709 
L 294.183759 395.104461 
L 288.776251 397.369031 
L 283.30325 399.470381 
L 277.76968 401.40662 
L 272.180521 403.176006 
L 266.540804 404.776946 
L 260.855603 406.207999 
L 255.130036 407.467878 
L 249.369254 408.555449 
L 243.578442 409.469733 
L 237.762811 410.209907 
L 231.927595 410.775306 
L 226.078045 411.16542 
L 220.219426 411.379898 
L 214.35701 411.418547 
L 208.496072 411.281333 
L 202.641887 410.968379 
L 196.799724 410.479967 
L 190.97484 409.816535 
L 185.172476 408.978682 
L 179.397855 407.967161 
L 173.656174 406.782883 
L 167.952599 405.426913 
L 162.292264 403.900471 
L 156.680262 402.204932 
L 151.121644 400.341821 
L 145.621412 398.312815 
L 140.184516 396.119739 
L 134.815849 393.764568 
L 129.520242 391.249421 
L 124.30246 388.576561 
L 119.167201 385.748393 
L 114.119085 382.767464 
L 109.162654 379.636455 
L 104.30237 376.358185 
L 99.542606 372.935603 
L 94.887646 369.371789 
L 90.341679 365.669952 
L 85.908796 361.833421 
L 81.592986 357.86565 
L 77.398134 353.77021 
L 73.328013 349.550785 
L 69.386288 345.211174 
L 65.576506 340.755282 
L 61.902094 336.187119 
L 58.36636 331.510795 
L 54.972486 326.730519 
L 51.723526 321.850593 
L 48.622403 316.875409 
L 45.671909 311.809444 
L 42.874699 306.657256 
L 40.23329 301.423484 
L 37.750059 296.112835 
L 35.42724 290.730091 
L 33.266926 285.280095 
L 31.271058 279.767751 
L 29.441434 274.198021 
L 27.779701 268.575916 
L 26.287353 262.906497 
L 24.965733 257.194865 
L 23.816031 251.44616 
L 22.839282 245.665556 
L 22.036365 239.858255 
L 21.408002 234.029484 
L 20.954758 228.184487 
L 20.677042 222.328525 
L 20.575104 216.466867 
L 20.649034 210.60479 
L 20.898768 204.747567 
L 21.324079 198.900471 
L 21.924586 193.068764 
L 22.699747 187.257693 
L 23.648865 181.472488 
L 24.771087 175.718356 
L 26.065402 170.000475 
L 27.530644 164.32399 
L 29.165497 158.694009 
L 30.968488 153.115601 
L 32.937995 147.593784 
L 35.072245 142.133528 
L 37.369319 136.739747 
L 39.827147 131.417295 
L 42.44352 126.170961 
L 45.216081 121.005468 
L 48.142337 115.925463 
L 51.219653 110.935519 
L 54.44526 106.040125 
L 57.816256 101.243688 
L 61.329606 96.550524 
L 64.982149 91.964857 
L 68.770598 87.490812 
L 72.691544 83.132418 
L 76.741458 78.893595 
L 80.916694 74.778158 
L 85.213497 70.789812 
L 89.627999 66.932145 
L 94.156227 63.208629 
L 98.794106 59.622615 
L 103.537463 56.17733 
L 108.382028 52.875875 
L 113.323442 49.721221 
L 118.357258 46.716206 
L 123.478946 43.863535 
L 128.683897 41.165775 
L 133.967426 38.625354 
L 139.324779 36.244559 
L 144.751135 34.025531 
L 150.24161 31.970268 
L 155.791263 30.08062 
L 161.395099 28.358286 
L 167.048077 26.804817 
L 172.745108 25.421611 
L 178.481065 24.209913 
L 184.250787 23.170813 
L 190.049081 22.305246 
L 195.870729 21.613991 
L 201.710492 21.097671 
L 207.563115 20.756749 
L 213.42333 20.591533 
L 215.377511 20.575538 
L 215.377511 20.575538 
" style="fill:none;stroke:#ff0000;stroke-linecap:round;stroke-width:1.5;"/>
   </g>
   <g id="line2d_26">
    <path clip-path="url(#pb232beeb61)" d="M 216 16.208625 
L 297.262473 33.481497 
L 364.473926 82.313476 
L 406.012889 154.26107 
L 414.696897 236.883885 
L 389.024406 315.895687 
L 333.434424 377.634618 
L 257.538963 411.425454 
L 174.461037 411.425454 
L 98.565576 377.634618 
L 42.975594 315.895687 
L 17.303103 236.883885 
L 25.987111 154.26107 
L 67.526074 82.313476 
L 134.737527 33.481497 
L 216 16.208625 
" style="fill:none;stroke:#000000;stroke-linecap:round;stroke-width:1.5;"/>
   </g>
   <g id="line2d_27">
    <path clip-path="url(#pb232beeb61)" d="M 216 16.208625 
L 221.992842 16.298525 
L 227.980291 16.568142 
L 233.956959 17.017234 
L 239.917466 17.645398 
L 245.85645 18.452067 
L 251.768565 19.436516 
L 257.64849 20.597859 
L 263.490935 21.935051 
L 269.29064 23.446888 
L 275.042388 25.132009 
L 280.741002 26.9889 
L 286.381353 29.015887 
L 291.958366 31.211147 
L 297.467022 33.572705 
L 302.902362 36.098435 
L 308.259496 38.786065 
L 313.533603 41.633175 
L 318.719937 44.637203 
L 323.813829 47.795447 
L 328.810696 51.105063 
L 333.706041 54.563073 
L 338.495459 58.166366 
L 343.174639 61.911698 
L 347.73937 65.7957 
L 352.185545 69.814875 
L 356.509162 73.965607 
L 360.70633 78.24416 
L 364.773273 82.646684 
L 368.706329 87.169218 
L 372.50196 91.80769 
L 376.15675 96.557927 
L 379.66741 101.415654 
L 383.03078 106.376498 
L 386.243833 111.435997 
L 389.303679 116.589596 
L 392.207563 121.832658 
L 394.952872 127.160464 
L 397.537135 132.56822 
L 399.958028 138.051059 
L 402.21337 143.604046 
L 404.301133 149.222185 
L 406.219438 154.900419 
L 407.966558 160.633639 
L 409.540922 166.416685 
L 410.941111 172.244353 
L 412.165867 178.111398 
L 413.214086 184.012539 
L 414.084826 189.942468 
L 414.777304 195.895846 
L 415.290895 201.867317 
L 415.625137 207.851507 
L 415.779731 213.843029 
L 415.754536 219.836492 
L 415.549576 225.826503 
L 415.165035 231.807671 
L 414.601258 237.774613 
L 413.858754 243.721959 
L 412.93819 249.644358 
L 411.840395 255.536478 
L 410.566357 261.393019 
L 409.117222 267.208709 
L 407.494295 272.978314 
L 405.699036 278.696643 
L 403.733061 284.358549 
L 401.598139 289.958937 
L 399.29619 295.492767 
L 396.829288 300.955059 
L 394.199651 306.340897 
L 391.409647 311.645434 
L 388.461786 316.863897 
L 385.358721 321.991589 
L 382.103245 327.023896 
L 378.698286 331.956289 
L 375.146911 336.784329 
L 371.452314 341.503672 
L 367.61782 346.110069 
L 363.64688 350.599376 
L 359.543069 354.967553 
L 355.310078 359.210669 
L 350.951717 363.324904 
L 346.47191 367.306557 
L 341.874686 371.152045 
L 337.164183 374.857906 
L 332.344641 378.420805 
L 327.420397 381.837537 
L 322.395881 385.105026 
L 317.275617 388.220332 
L 312.064211 391.180652 
L 306.766354 393.98332 
L 301.386814 396.625816 
L 295.930431 399.105761 
L 290.402116 401.420923 
L 284.806844 403.569218 
L 279.149651 405.548714 
L 273.435627 407.357629 
L 267.669915 408.994335 
L 261.857704 410.457359 
L 256.004224 411.745384 
L 250.114743 412.857252 
L 244.19456 413.791962 
L 238.249005 414.548672 
L 232.283427 415.126702 
L 226.303195 415.525531 
L 220.313691 415.744801 
L 214.320304 415.784314 
L 208.32843 415.644034 
L 202.343459 415.324089 
L 196.370778 414.824765 
L 190.415763 414.146512 
L 184.483771 413.289941 
L 178.580142 412.255822 
L 172.710188 411.045086 
L 166.879192 409.658823 
L 161.092401 408.09828 
L 155.355024 406.364861 
L 149.672223 404.460127 
L 144.049112 402.385791 
L 138.490753 400.143721 
L 133.002146 397.735934 
L 127.588232 395.164597 
L 122.253883 392.432024 
L 117.003899 389.540674 
L 111.843004 386.493148 
L 106.775844 383.292191 
L 101.806978 379.940682 
L 96.940879 376.441638 
L 92.181924 372.798206 
L 87.534397 369.013667 
L 83.002481 365.091426 
L 78.590254 361.035013 
L 74.301686 356.848078 
L 70.140636 352.534389 
L 66.110851 348.097829 
L 62.215956 343.542389 
L 58.459455 338.87217 
L 54.844731 334.091375 
L 51.375036 329.204305 
L 48.053492 324.215358 
L 44.883088 319.129025 
L 41.866678 313.949884 
L 39.006977 308.682593 
L 36.306557 303.331895 
L 33.767849 297.902604 
L 31.393138 292.399606 
L 29.18456 286.827853 
L 27.144104 281.192361 
L 25.273605 275.498199 
L 23.574747 269.750494 
L 22.049059 263.954416 
L 20.697914 258.115183 
L 19.522527 252.238048 
L 18.523957 246.328302 
L 17.703102 240.391263 
L 17.060701 234.432273 
L 16.597332 228.456695 
L 16.313411 222.469908 
L 16.209195 216.477297 
L 16.284778 210.484257 
L 16.54009 204.496181 
L 16.974903 198.518458 
L 17.588825 192.556467 
L 18.381304 186.615573 
L 19.351627 180.701123 
L 20.498919 174.81844 
L 21.82215 168.972818 
L 23.320127 163.169517 
L 24.991503 157.41376 
L 26.834774 151.710726 
L 28.848281 146.065548 
L 31.030212 140.483307 
L 33.378603 134.969026 
L 35.891341 129.527667 
L 38.566165 124.164127 
L 41.400667 118.883234 
L 44.392297 113.689738 
L 47.538362 108.588316 
L 50.836031 103.583556 
L 54.282337 98.679964 
L 57.874177 93.881952 
L 61.608321 89.193838 
L 65.481406 84.619841 
L 69.489948 80.164077 
L 73.630339 75.830556 
L 77.898853 71.623178 
L 82.291649 67.54573 
L 86.804773 63.601881 
L 91.434164 59.795179 
L 96.175657 56.129051 
L 101.024983 52.606797 
L 105.977778 49.231585 
L 111.029587 46.006454 
L 116.175861 42.934305 
L 121.411971 40.017904 
L 126.733203 37.259875 
L 132.13477 34.662699 
L 137.611809 32.228716 
L 143.159393 29.960113 
L 148.772528 27.858935 
L 154.446164 25.92707 
L 160.175193 24.166258 
L 165.954462 22.578084 
L 171.778768 21.163976 
L 177.64287 19.925208 
L 183.541491 18.862894 
L 189.469322 17.97799 
L 195.421029 17.271292 
L 201.391256 16.743437 
L 207.37463 16.394899 
L 213.365766 16.225992 
L 215.363604 16.209639 
L 215.363604 16.209639 
" style="fill:none;stroke:#ff0000;stroke-linecap:round;stroke-width:1.5;"/>
   </g>
   <g id="line2d_28">
    <path clip-path="url(#pb232beeb61)" d="M 216 12.294481 
L 293.954727 27.80064 
L 360.041554 71.958446 
L 404.19936 138.045273 
L 419.705519 216 
L 404.19936 293.954727 
L 360.041554 360.041554 
L 293.954727 404.19936 
L 216 419.705519 
L 138.045273 404.19936 
L 71.958446 360.041554 
L 27.80064 293.954727 
L 12.294481 216 
L 27.80064 138.045273 
L 71.958446 71.958446 
L 138.045273 27.80064 
L 216 12.294481 
" style="fill:none;stroke:#000000;stroke-linecap:round;stroke-width:1.5;"/>
   </g>
   <g id="line2d_29">
    <path clip-path="url(#pb232beeb61)" d="M 216 12.294481 
L 222.110249 12.386141 
L 228.214999 12.661041 
L 234.308757 13.118931 
L 240.386037 13.759401 
L 246.441372 14.581874 
L 252.469312 15.58561 
L 258.464432 16.769705 
L 264.421337 18.133093 
L 270.334666 19.674549 
L 276.199097 21.392684 
L 282.009353 23.285953 
L 287.760206 25.352652 
L 293.446479 27.59092 
L 299.063055 29.998743 
L 304.60488 32.573955 
L 310.066967 35.314239 
L 315.4444 38.217127 
L 320.732339 41.280008 
L 325.926027 44.500125 
L 331.020788 47.87458 
L 336.012039 51.400337 
L 340.895287 55.074222 
L 345.666137 58.89293 
L 350.320297 62.853024 
L 354.853578 66.950939 
L 359.261899 71.182989 
L 363.541295 75.545364 
L 367.687913 80.034139 
L 371.698023 84.645273 
L 375.568015 89.374619 
L 379.294406 94.217918 
L 382.873844 99.170813 
L 386.303106 104.228847 
L 389.579107 109.387467 
L 392.698899 114.642031 
L 395.659673 119.987811 
L 398.458766 125.419995 
L 401.093658 130.933695 
L 403.561979 136.523949 
L 405.861506 142.185725 
L 407.990171 147.91393 
L 409.946057 153.703408 
L 411.727406 159.548948 
L 413.332612 165.445291 
L 414.760233 171.387129 
L 416.008983 177.369116 
L 417.077739 183.385868 
L 417.965538 189.431971 
L 418.671581 195.501983 
L 419.195234 201.590442 
L 419.536025 207.691868 
L 419.693647 213.800771 
L 419.667959 219.911654 
L 419.458983 226.019016 
L 419.066908 232.117362 
L 418.492087 238.201203 
L 417.735036 244.265065 
L 416.796437 250.30349 
L 415.677135 256.311044 
L 414.378137 262.282321 
L 412.900612 268.211947 
L 411.24589 274.094585 
L 409.41546 279.924943 
L 407.410969 285.697772 
L 405.234221 291.407878 
L 402.887175 297.050123 
L 400.371943 302.619427 
L 397.690789 308.11078 
L 394.846125 313.519239 
L 391.840512 318.839938 
L 388.676655 324.068087 
L 385.3574 329.198983 
L 381.885734 334.228007 
L 378.264783 339.150634 
L 374.497805 343.962434 
L 370.588189 348.659076 
L 366.539454 353.236334 
L 362.355244 357.690089 
L 358.039324 362.016332 
L 353.595578 366.21117 
L 349.028005 370.270828 
L 344.340717 374.191653 
L 339.53793 377.970116 
L 334.623967 381.602817 
L 329.603251 385.086486 
L 324.4803 388.41799 
L 319.259724 391.594328 
L 313.94622 394.612644 
L 308.544572 397.47022 
L 303.05964 400.164485 
L 297.496361 402.693015 
L 291.85974 405.053533 
L 286.15485 407.243916 
L 280.386826 409.262193 
L 274.560858 411.106547 
L 268.682189 412.775317 
L 262.75611 414.267004 
L 256.787953 415.580263 
L 250.78309 416.713914 
L 244.746925 417.666936 
L 238.684889 418.438471 
L 232.602438 419.027825 
L 226.505046 419.434467 
L 220.398201 419.658033 
L 214.287397 419.69832 
L 208.178135 419.555292 
L 202.075912 419.229078 
L 195.986219 418.719972 
L 189.914538 418.028432 
L 183.866331 417.155079 
L 177.847043 416.100701 
L 171.86209 414.866245 
L 165.916858 413.452823 
L 160.016698 411.861707 
L 154.166919 410.094329 
L 148.372785 408.152279 
L 142.639511 406.037305 
L 136.972257 403.75131 
L 131.376122 401.296351 
L 125.856143 398.674639 
L 120.417288 395.888531 
L 115.06445 392.940536 
L 109.802448 389.833307 
L 104.636016 386.569639 
L 99.569805 383.15247 
L 94.608373 379.584875 
L 89.756184 375.870065 
L 85.017607 372.011382 
L 80.396906 368.0123 
L 75.898237 363.876417 
L 71.525651 359.607455 
L 67.283083 355.209256 
L 63.174349 350.685778 
L 59.203148 346.041093 
L 55.373054 341.279378 
L 51.687513 336.404921 
L 48.149842 331.422108 
L 44.763225 326.335422 
L 41.53071 321.149443 
L 38.455205 315.868835 
L 35.539478 310.498353 
L 32.786154 305.042828 
L 30.19771 299.507171 
L 27.776475 293.896363 
L 25.524629 288.215453 
L 23.444198 282.469555 
L 21.537054 276.663838 
L 19.804914 270.803528 
L 18.249336 264.893898 
L 16.87172 258.940268 
L 15.673306 252.947994 
L 14.655173 246.922469 
L 13.818236 240.869116 
L 13.16325 234.793383 
L 12.690802 228.700737 
L 12.40132 222.596661 
L 12.295062 216.486648 
L 12.372125 210.376198 
L 12.63244 204.270808 
L 13.075771 198.175974 
L 13.701721 192.097181 
L 14.509725 186.039898 
L 15.499057 180.009577 
L 16.668827 174.011646 
L 18.017981 168.051501 
L 19.545305 162.134506 
L 21.249425 156.265987 
L 23.128808 150.451225 
L 25.181762 144.695452 
L 27.406439 139.003848 
L 29.800838 133.381535 
L 32.362804 127.833574 
L 35.09003 122.364956 
L 37.980064 116.980604 
L 41.030303 111.685362 
L 44.238003 106.483996 
L 47.600278 101.381188 
L 51.1141 96.381529 
L 54.776309 91.489518 
L 58.583609 86.709558 
L 62.532572 82.045951 
L 66.619646 77.502894 
L 70.841152 73.084474 
L 75.193292 68.794669 
L 79.672147 64.637339 
L 84.273689 60.616225 
L 88.993776 56.734946 
L 93.828159 52.996994 
L 98.772489 49.405735 
L 103.822316 45.964399 
L 108.973095 42.676083 
L 114.220191 39.543748 
L 119.558882 36.570211 
L 124.984363 33.758148 
L 130.491753 31.110092 
L 136.076094 28.628423 
L 141.732361 26.315377 
L 147.455464 24.173033 
L 153.240253 22.203321 
L 159.081521 20.408013 
L 164.974012 18.788725 
L 170.912423 17.346913 
L 176.891409 16.083876 
L 182.905591 15.00075 
L 188.949555 14.098509 
L 195.017863 13.377966 
L 201.105054 12.83977 
L 207.205649 12.484404 
L 213.314158 12.312188 
L 215.351136 12.295514 
L 215.351136 12.295514 
" style="fill:none;stroke:#ff0000;stroke-linecap:round;stroke-width:1.5;"/>
   </g>
   <g id="line2d_30">
    <path clip-path="url(#pb232beeb61)" d="M 216 8.765927 
L 290.861582 22.759982 
L 355.612692 62.852172 
L 401.508335 123.627825 
L 422.350049 196.878852 
L 415.323046 272.712296 
L 381.37636 340.88643 
L 325.094681 392.19396 
L 254.079161 419.705519 
L 177.920839 419.705519 
L 106.905319 392.19396 
L 50.62364 340.88643 
L 16.676954 272.712296 
L 9.649951 196.878852 
L 30.491665 123.627825 
L 76.387308 62.852172 
L 141.138418 22.759982 
L 216 8.765927 
" style="fill:none;stroke:#000000;stroke-linecap:round;stroke-width:1.5;"/>
   </g>
   <g id="line2d_31">
    <path clip-path="url(#pb232beeb61)" d="M 216 8.765927 
L 222.21609 8.859175 
L 228.426585 9.138836 
L 234.625898 9.604658 
L 240.808448 10.256223 
L 246.968673 11.092942 
L 253.101028 12.114064 
L 259.199994 13.31867 
L 265.260083 14.705675 
L 271.275842 16.273832 
L 277.241856 18.021728 
L 283.152757 19.947792 
L 289.003224 22.050289 
L 294.787994 24.327328 
L 300.50186 26.77686 
L 306.139679 29.396679 
L 311.696379 32.184429 
L 317.166959 35.137601 
L 322.546496 38.253536 
L 327.830147 41.529432 
L 333.01316 44.962339 
L 338.090868 48.549168 
L 343.058703 52.286692 
L 347.912193 56.171547 
L 352.646971 60.200237 
L 357.258777 64.369135 
L 361.743459 68.674492 
L 366.096981 73.112431 
L 370.315427 77.67896 
L 374.394999 82.369968 
L 378.332026 87.181234 
L 382.122965 92.108429 
L 385.764405 97.147117 
L 389.253069 102.292765 
L 392.585816 107.540742 
L 395.759648 112.886325 
L 398.771709 118.324703 
L 401.619287 123.850983 
L 404.29982 129.46019 
L 406.810897 135.147277 
L 409.150256 140.907127 
L 411.315793 146.734554 
L 413.305559 152.624316 
L 415.117764 158.571112 
L 416.750776 164.56959 
L 418.203126 170.614352 
L 419.473506 176.699958 
L 420.560775 182.820931 
L 421.463952 188.971764 
L 422.182225 195.146919 
L 422.714949 201.340842 
L 423.061643 207.547956 
L 423.221996 213.762677 
L 423.195862 219.979411 
L 422.983267 226.192564 
L 422.5844 232.396544 
L 421.999622 238.585769 
L 421.229457 244.754667 
L 420.2746 250.897689 
L 419.13591 257.009305 
L 417.814411 263.084016 
L 416.311293 269.116353 
L 414.627908 275.10089 
L 412.765771 281.03224 
L 410.726559 286.905066 
L 408.512106 292.714081 
L 406.124404 298.45406 
L 403.565604 304.119835 
L 400.838007 309.706308 
L 397.944069 315.208452 
L 394.886393 320.621315 
L 391.667732 325.940025 
L 388.290981 331.159798 
L 384.75918 336.275934 
L 381.075507 341.28383 
L 377.243278 346.178978 
L 373.26594 350.956975 
L 369.147074 355.61352 
L 364.890385 360.144421 
L 360.499706 364.545603 
L 355.978986 368.813103 
L 351.332295 372.943082 
L 346.563814 376.931823 
L 341.677834 380.775736 
L 336.678752 384.471362 
L 331.571068 388.015375 
L 326.359378 391.404586 
L 321.048372 394.635945 
L 315.642829 397.706543 
L 310.147614 400.613617 
L 304.567673 403.354552 
L 298.908027 405.926881 
L 293.17377 408.328288 
L 287.370061 410.556612 
L 281.502124 412.609849 
L 275.575239 414.48615 
L 269.594741 416.183827 
L 263.566011 417.701353 
L 257.494475 419.03736 
L 251.385597 420.190648 
L 245.244874 421.160177 
L 239.077833 421.945077 
L 232.890023 422.54464 
L 226.687013 422.958326 
L 220.474386 423.185764 
L 214.257732 423.226749 
L 208.042646 423.081244 
L 201.834721 422.74938 
L 195.639544 422.231455 
L 189.46269 421.527935 
L 183.309717 420.639455 
L 177.186164 419.566813 
L 171.097541 418.310974 
L 165.049326 416.873069 
L 159.046964 415.254392 
L 153.095856 413.4564 
L 147.201357 411.48071 
L 141.368773 409.3291 
L 135.603351 407.003508 
L 129.910281 404.506025 
L 124.294686 401.838899 
L 118.76162 399.004531 
L 113.316061 396.005472 
L 107.962911 392.844419 
L 102.706988 389.524218 
L 97.55302 386.047858 
L 92.505646 382.418466 
L 87.56941 378.639308 
L 82.748752 374.713786 
L 78.048011 370.645432 
L 73.471417 366.437908 
L 69.02309 362.095 
L 64.707032 357.620616 
L 60.527128 353.018784 
L 56.487138 348.293643 
L 52.5907 343.449447 
L 48.841319 338.490556 
L 45.242369 333.421431 
L 41.797089 328.246635 
L 38.508581 322.970824 
L 35.379803 317.598747 
L 32.41357 312.135238 
L 29.612554 306.585213 
L 26.979273 300.953668 
L 24.516098 295.245671 
L 22.225246 289.466358 
L 20.108778 283.620929 
L 18.168599 277.714647 
L 16.406454 271.752826 
L 14.823931 265.740831 
L 13.422452 259.684072 
L 12.20328 253.588001 
L 11.16751 247.458103 
L 10.316077 241.299895 
L 9.649744 235.118919 
L 9.169113 228.920737 
L 8.874616 222.710927 
L 8.766518 216.495078 
L 8.844916 210.278783 
L 9.10974 204.067637 
L 9.560751 197.867229 
L 10.197543 191.68314 
L 11.019543 185.520934 
L 12.026012 179.386157 
L 13.216044 173.28433 
L 14.588568 167.220945 
L 16.142349 161.201457 
L 17.875988 155.231284 
L 19.787925 149.315799 
L 21.87644 143.460326 
L 24.139652 137.670133 
L 26.575527 131.950432 
L 29.18187 126.306369 
L 31.956337 120.743025 
L 34.896431 115.265406 
L 37.999506 109.878441 
L 41.26277 104.586978 
L 44.683285 99.39578 
L 48.257974 94.309517 
L 51.983619 89.332768 
L 55.856868 84.47001 
L 59.874235 79.725621 
L 64.032104 75.103869 
L 68.326734 70.608915 
L 72.754261 66.244802 
L 77.310698 62.01546 
L 81.991947 57.924692 
L 86.793794 53.976182 
L 91.711918 50.173483 
L 96.741893 46.520016 
L 101.879192 43.01907 
L 107.119192 39.673795 
L 112.457177 36.487201 
L 117.888344 33.462157 
L 123.407805 30.601385 
L 129.010593 27.907459 
L 134.691665 25.382803 
L 140.445909 23.02969 
L 146.268147 20.850238 
L 152.153139 18.846407 
L 158.095588 17.020001 
L 164.090148 15.372663 
L 170.131423 13.905877 
L 176.213976 12.620961 
L 182.332335 11.519073 
L 188.480992 10.601204 
L 194.654414 9.86818 
L 200.847046 9.320661 
L 207.053314 8.95914 
L 213.267634 8.783941 
L 215.339897 8.766978 
L 215.339897 8.766978 
" style="fill:none;stroke:#ff0000;stroke-linecap:round;stroke-width:1.5;"/>
   </g>
   <g id="line2d_32">
    <path clip-path="url(#pb232beeb61)" d="M 216 5.569007 
L 287.971638 18.259549 
L 351.262435 54.800507 
L 398.238585 110.784504 
L 423.234073 179.459042 
L 423.234073 252.540958 
L 398.238585 321.215496 
L 351.262435 377.199493 
L 287.971638 413.740451 
L 216 426.430993 
L 144.028362 413.740451 
L 80.737565 377.199493 
L 33.761415 321.215496 
L 8.765927 252.540958 
L 8.765927 179.459042 
L 33.761415 110.784504 
L 80.737565 54.800507 
L 144.028362 18.259549 
L 216 5.569007 
" style="fill:none;stroke:#000000;stroke-linecap:round;stroke-width:1.5;"/>
   </g>
   <g id="line2d_33">
    <path clip-path="url(#pb232beeb61)" d="M 216 5.569007 
L 222.311983 5.663694 
L 228.618285 5.947669 
L 234.913232 6.420678 
L 241.191159 7.082293 
L 247.446415 7.93192 
L 253.673371 8.968795 
L 259.866424 10.191984 
L 266.02 11.600386 
L 272.128561 13.192734 
L 278.18661 14.967594 
L 284.188696 16.92337 
L 290.129417 19.058302 
L 296.003426 21.370468 
L 301.805437 23.857788 
L 307.530229 26.518022 
L 313.17265 29.348778 
L 318.727623 32.347507 
L 324.190147 35.511511 
L 329.555308 38.837942 
L 334.818276 42.323807 
L 339.974316 45.965969 
L 345.018788 49.76115 
L 349.947151 53.705935 
L 354.754971 57.796774 
L 359.437921 62.029985 
L 363.991786 66.401758 
L 368.412469 70.90816 
L 372.695991 75.545135 
L 376.838497 80.30851 
L 380.836259 85.193997 
L 384.68568 90.197202 
L 388.383295 95.31362 
L 391.925777 100.538648 
L 395.309937 105.867583 
L 398.53273 111.29563 
L 401.591257 116.817904 
L 404.482764 122.429436 
L 407.204649 128.125174 
L 409.754462 133.899994 
L 412.12991 139.748698 
L 414.328854 145.666023 
L 416.349316 151.646644 
L 418.189476 157.685179 
L 419.84768 163.776193 
L 421.322435 169.914205 
L 422.612413 176.093692 
L 423.716454 182.309091 
L 424.633564 188.554809 
L 425.362919 194.825227 
L 425.90386 201.1147 
L 426.255903 207.41757 
L 426.418729 213.728162 
L 426.392192 220.0408 
L 426.176317 226.3498 
L 425.771298 232.649487 
L 425.177498 238.93419 
L 424.395453 245.198255 
L 423.425865 251.436042 
L 422.269609 257.64194 
L 420.927724 263.810362 
L 419.401417 269.935759 
L 417.692064 276.012617 
L 415.801201 282.035468 
L 413.73053 287.998891 
L 411.481915 293.89752 
L 409.05738 299.726046 
L 406.459106 305.479225 
L 403.689431 311.151879 
L 400.750849 316.738902 
L 397.646004 322.235267 
L 394.377689 327.636027 
L 390.948847 332.936323 
L 387.362562 338.131384 
L 383.622063 343.216535 
L 379.730715 348.187199 
L 375.692021 353.038904 
L 371.509614 357.767283 
L 367.18726 362.368081 
L 362.728847 366.837158 
L 358.138388 371.170492 
L 353.420014 375.364182 
L 348.577971 379.414456 
L 343.616617 383.317667 
L 338.540417 387.070304 
L 333.353938 390.668989 
L 328.061849 394.110484 
L 322.668912 397.391692 
L 317.17998 400.509659 
L 311.599993 403.46158 
L 305.933972 406.244798 
L 300.187017 408.856809 
L 294.3643 411.295262 
L 288.471059 413.557962 
L 282.5126 415.642873 
L 276.494284 417.548119 
L 270.421526 419.271986 
L 264.299794 420.812921 
L 258.134594 422.169539 
L 251.931477 423.340618 
L 245.696023 424.325104 
L 239.433845 425.122112 
L 233.150579 425.730924 
L 226.851878 426.150992 
L 220.54341 426.381939 
L 214.230855 426.423556 
L 207.919891 426.275806 
L 201.616199 425.938822 
L 195.325451 425.412907 
L 189.053309 424.698535 
L 182.805417 423.796348 
L 176.587398 422.707159 
L 170.404848 421.431947 
L 164.26333 419.97186 
L 158.168372 418.328212 
L 152.125458 416.502483 
L 146.140027 414.496315 
L 140.217466 412.311513 
L 134.363103 409.950045 
L 128.582208 407.414034 
L 122.879984 404.705764 
L 117.261561 401.827671 
L 111.731996 398.782346 
L 106.296265 395.572529 
L 100.95926 392.201109 
L 95.725784 388.67112 
L 90.600547 384.985739 
L 85.588161 381.148282 
L 80.693136 377.162202 
L 75.919879 373.031087 
L 71.272684 368.758655 
L 66.755734 364.348751 
L 62.373094 359.805343 
L 58.128708 355.132519 
L 54.026395 350.334486 
L 50.069848 345.415561 
L 46.262626 340.38017 
L 42.608157 335.232846 
L 39.109729 329.97822 
L 35.77049 324.621021 
L 32.593445 319.166071 
L 29.581454 313.618279 
L 26.737227 307.982636 
L 24.063323 302.264216 
L 21.56215 296.468163 
L 19.235958 290.599694 
L 17.08684 284.664091 
L 15.11673 278.666695 
L 13.327402 272.612903 
L 11.720466 266.508163 
L 10.297367 260.357969 
L 9.059387 254.167856 
L 8.007639 247.943395 
L 7.14307 241.690187 
L 6.466459 235.413859 
L 5.978414 229.12006 
L 5.679374 222.814454 
L 5.569608 216.502715 
L 5.649215 210.190524 
L 5.918124 203.883561 
L 6.376092 197.587502 
L 7.022708 191.308013 
L 7.857389 185.050745 
L 8.879385 178.82133 
L 10.087775 172.625372 
L 11.481472 166.468449 
L 13.059222 160.356101 
L 14.819605 154.293829 
L 16.761037 148.287088 
L 18.881771 142.341284 
L 21.179897 136.461768 
L 23.653349 130.653831 
L 26.299899 124.9227 
L 29.117167 119.273533 
L 32.102617 113.711412 
L 35.253562 108.241345 
L 38.567166 102.868253 
L 42.040449 97.596971 
L 45.670283 92.432245 
L 49.453402 87.378721 
L 53.386402 82.440948 
L 57.465743 77.623369 
L 61.687754 72.930319 
L 66.048636 68.366023 
L 70.544464 63.934587 
L 75.171192 59.64 
L 79.924657 55.486126 
L 84.80058 51.476704 
L 89.794574 47.615342 
L 94.902144 43.905514 
L 100.118695 40.35056 
L 105.43953 36.953679 
L 110.859863 33.717927 
L 116.374814 30.646217 
L 121.979421 27.741312 
L 127.668641 25.005828 
L 133.437353 22.442226 
L 139.280366 20.052812 
L 145.192421 17.839738 
L 151.168198 15.804995 
L 157.202319 13.950413 
L 163.289355 12.277663 
L 169.423826 10.788249 
L 175.600213 9.483512 
L 181.812957 8.364625 
L 188.056467 7.432597 
L 194.325124 6.688265 
L 200.613287 6.132299 
L 206.915297 5.765201 
L 213.225483 5.587299 
L 215.329714 5.570075 
L 215.329714 5.570075 
" style="fill:none;stroke:#ff0000;stroke-linecap:round;stroke-width:1.5;"/>
   </g>
   <g id="line2d_34">
    <path clip-path="url(#pb232beeb61)" d="M 216 2.659318 
L 285.271606 14.218705 
L 347.036559 47.644226 
L 394.601667 99.313707 
L 422.812513 163.627959 
L 428.612015 233.617534 
L 411.371706 301.697976 
L 372.959841 360.491712 
L 317.538941 403.62753 
L 251.114722 426.430993 
L 180.885278 426.430993 
L 114.461059 403.62753 
L 59.040159 360.491712 
L 20.628294 301.697976 
L 3.387985 233.617534 
L 9.187487 163.627959 
L 37.398333 99.313707 
L 84.963441 47.644226 
L 146.728394 14.218705 
L 216 2.659318 
" style="fill:none;stroke:#000000;stroke-linecap:round;stroke-width:1.5;"/>
   </g>
   <g id="line2d_35">
    <path clip-path="url(#pb232beeb61)" d="M 216 2.659318 
L 222.39926 2.755315 
L 228.792762 3.043216 
L 235.174751 3.522765 
L 241.539484 4.193529 
L 247.881233 5.054904 
L 254.194291 6.106116 
L 260.472977 7.346218 
L 266.71164 8.774094 
L 272.904666 10.38846 
L 279.046482 12.187862 
L 285.131561 14.170682 
L 291.154425 16.335134 
L 297.109656 18.679271 
L 302.991893 21.200983 
L 308.795844 23.898001 
L 314.516284 26.767899 
L 320.148067 29.808092 
L 325.686123 33.015845 
L 331.125469 36.388272 
L 336.46121 39.922337 
L 341.688544 43.614861 
L 346.802767 47.462519 
L 351.799276 51.46185 
L 356.673575 55.609253 
L 361.421278 59.900998 
L 366.038111 64.333221 
L 370.519919 68.901934 
L 374.862671 73.603026 
L 379.062456 78.432265 
L 383.115497 83.385306 
L 387.018145 88.457691 
L 390.766888 93.644855 
L 394.358352 98.942131 
L 397.789306 104.344751 
L 401.056662 109.847854 
L 404.15748 115.446486 
L 407.088968 121.135609 
L 409.848489 126.910104 
L 412.43356 132.764774 
L 414.841854 138.69435 
L 417.071203 144.693495 
L 419.119602 150.756812 
L 420.985207 156.878844 
L 422.66634 163.05408 
L 424.161486 169.276964 
L 425.469301 175.541896 
L 426.588608 181.843237 
L 427.5184 188.175317 
L 428.257839 194.532437 
L 428.80626 200.908877 
L 429.16317 207.298898 
L 429.328248 213.696749 
L 429.301345 220.096673 
L 429.082485 226.49291 
L 428.671865 232.879704 
L 428.069854 239.251308 
L 427.276995 245.601987 
L 426.294001 251.926026 
L 425.121757 258.217735 
L 423.761317 264.47145 
L 422.213906 270.681544 
L 420.480917 276.842428 
L 418.563908 282.948559 
L 416.464606 288.99444 
L 414.184899 294.974631 
L 411.726839 300.88375 
L 409.092638 306.71648 
L 406.284666 312.467571 
L 403.305452 318.131847 
L 400.157675 323.704212 
L 396.844168 329.17965 
L 393.367914 334.553235 
L 389.732041 339.820129 
L 385.939821 344.975594 
L 381.994666 350.014989 
L 377.900128 354.93378 
L 373.65989 359.727539 
L 369.277769 364.391954 
L 364.757708 368.922826 
L 360.103775 373.316078 
L 355.320159 377.567756 
L 350.411164 381.674034 
L 345.381208 385.631216 
L 340.234818 389.435742 
L 334.976624 393.084187 
L 329.61136 396.573268 
L 324.143853 399.899846 
L 318.579024 403.060926 
L 312.921881 406.053664 
L 307.177515 408.875367 
L 301.351095 411.523495 
L 295.447865 413.995665 
L 289.473137 416.289652 
L 283.432288 418.403392 
L 277.330755 420.334982 
L 271.174028 422.082685 
L 264.967649 423.644927 
L 258.717201 425.020303 
L 252.428312 426.207575 
L 246.106639 427.205674 
L 239.757872 428.013702 
L 233.387725 428.630932 
L 227.00193 429.056809 
L 220.606233 429.290949 
L 214.206392 429.333142 
L 207.808165 429.183349 
L 201.41731 428.841705 
L 195.039578 428.308519 
L 188.680709 427.584269 
L 182.346426 426.669607 
L 176.042429 425.565357 
L 169.774391 424.272512 
L 163.547952 422.792237 
L 157.368718 421.125862 
L 151.242247 419.274887 
L 145.174054 417.240979 
L 139.169599 415.025968 
L 133.234287 412.631847 
L 127.373458 410.06077 
L 121.592387 407.315052 
L 115.896277 404.397163 
L 110.290253 401.309729 
L 104.779361 398.055529 
L 99.368559 394.637492 
L 94.062719 391.058693 
L 88.866613 387.322352 
L 83.784919 383.431834 
L 78.82221 379.390637 
L 73.982952 375.202401 
L 69.271499 370.870893 
L 64.692092 366.400011 
L 60.248852 361.79378 
L 55.945777 357.056344 
L 51.786741 352.191967 
L 47.775485 347.205026 
L 43.91562 342.10001 
L 40.210619 336.881512 
L 36.663817 331.554229 
L 33.278405 326.122955 
L 30.057431 320.592578 
L 27.003792 314.968074 
L 24.120237 309.254506 
L 21.409361 303.457015 
L 18.873603 297.580819 
L 16.515246 291.631206 
L 14.336411 285.613529 
L 12.339061 279.533205 
L 10.524991 273.395706 
L 8.895835 267.206554 
L 7.453058 260.97132 
L 6.19796 254.695614 
L 5.13167 248.385085 
L 4.255147 242.045412 
L 3.56918 235.6823 
L 3.074386 229.301475 
L 2.771211 222.908679 
L 2.659927 216.509666 
L 2.740635 210.110195 
L 3.013263 203.716024 
L 3.477563 197.332907 
L 4.13312 190.96659 
L 4.979343 184.622801 
L 6.01547 178.30725 
L 7.240569 172.025619 
L 8.653537 165.783563 
L 10.253103 159.586697 
L 12.037827 153.4406 
L 14.006104 147.350803 
L 16.156161 141.322784 
L 18.486065 135.361971 
L 20.993717 129.473726 
L 23.676862 123.663349 
L 26.533085 117.936068 
L 29.559816 112.297039 
L 32.75433 106.751335 
L 36.113752 101.303948 
L 39.635061 95.959779 
L 43.315085 90.723639 
L 47.150515 85.600239 
L 51.137898 80.594189 
L 55.273645 75.709996 
L 59.554035 70.952054 
L 63.975216 66.324646 
L 68.533209 61.831936 
L 73.223913 57.477966 
L 78.043105 53.266655 
L 82.986449 49.201794 
L 88.049496 45.287039 
L 93.22769 41.525915 
L 98.516371 37.921806 
L 103.910779 34.477955 
L 109.40606 31.197461 
L 114.997268 28.083277 
L 120.679372 25.138206 
L 126.447258 22.364898 
L 132.295736 19.765848 
L 138.219541 17.343395 
L 144.213344 15.09972 
L 150.27175 13.036842 
L 156.389307 11.156617 
L 162.56051 9.460737 
L 168.779804 7.950728 
L 175.041594 6.62795 
L 181.340243 5.493592 
L 187.670084 4.548676 
L 194.025419 3.794052 
L 200.400531 3.230399 
L 206.789681 2.858225 
L 213.187119 2.677863 
L 215.320446 2.660401 
L 215.320446 2.660401 
" style="fill:none;stroke:#ff0000;stroke-linecap:round;stroke-width:1.5;"/>
   </g>
   <g id="line2d_36">
    <path clip-path="url(#pb232beeb61)" d="M 216 -0 
L 282.747671 10.571792 
L 342.961614 41.252329 
L 390.747671 89.038386 
L 421.428208 149.252329 
L 432 216 
L 421.428208 282.747671 
L 390.747671 342.961614 
L 342.961614 390.747671 
L 282.747671 421.428208 
L 216 432 
L 149.252329 421.428208 
L 89.038386 390.747671 
L 41.252329 342.961614 
L 10.571792 282.747671 
L -0 216 
L 10.571792 149.252329 
L 41.252329 89.038386 
L 89.038386 41.252329 
L 149.252329 10.571792 
L 216 -0 
" style="fill:none;stroke:#000000;stroke-linecap:round;stroke-width:1.5;"/>
   </g>
  </g>
 </g>
 <defs>
  <clipPath id="pb232beeb61">
   <rect height="432" width="432" x="0" y="0"/>
  </clipPath>
 </defs>
</svg>
